M48
; DRILL file KiCad 10.0.4 date 2026-06-28T00:54:03
; FORMAT={-:-/ absolute / metric / decimal}
; #@! TF.CreationDate,2026-06-28T00:54:03+05:30
; #@! TF.GenerationSoftware,Kicad,Pcbnew,10.0.4
; #@! TF.FileFunction,Plated,1,2,PTH
FMAT,2
METRIC
; #@! TA.AperFunction,Plated,PTH,ComponentDrill
T1C0.750
; #@! TA.AperFunction,Plated,PTH,ComponentDrill
T2C0.800
; #@! TA.AperFunction,Plated,PTH,ComponentDrill
T3C1.100
; #@! TA.AperFunction,Plated,PTH,ComponentDrill
T4C1.300
%
G90
G05
T1
X115.755Y-109.195
X117.025Y-109.195
X118.295Y-109.195
T2
X115.0Y-116.265
X115.425Y-124.0
X118.825Y-124.0
X122.62Y-116.265
X123.5Y-124.5
X131.12Y-124.5
X135.5Y-124.315
X138.135Y-73.955
X138.135Y-81.575
X140.5Y-124.315
X140.675Y-73.955
X140.675Y-81.575
X143.215Y-73.955
X143.215Y-81.575
X144.0Y-102.825
X145.755Y-73.955
X145.755Y-81.575
X146.54Y-102.825
X149.08Y-102.825
T3
X116.42Y-101.895
X126.58Y-101.895
T4
X116.5Y-78.97
X116.5Y-91.17
X122.5Y-76.97
X128.5Y-78.97
X128.5Y-91.17
X147.42Y-126.755
X152.5Y-126.755
M30
