%TF.GenerationSoftware,KiCad,Pcbnew,10.0.4*%
%TF.CreationDate,2026-06-28T00:53:46+05:30*%
%TF.ProjectId,Automatic_Night_Lamp,4175746f-6d61-4746-9963-5f4e69676874,rev?*%
%TF.SameCoordinates,Original*%
%TF.FileFunction,Legend,Bot*%
%TF.FilePolarity,Positive*%
%FSLAX46Y46*%
G04 Gerber Fmt 4.6, Leading zero omitted, Abs format (unit mm)*
G04 Created by KiCad (PCBNEW 10.0.4) date 2026-06-28 00:53:46*
%MOMM*%
%LPD*%
G01*
G04 APERTURE LIST*
G04 Aperture macros list*
%AMRoundRect*
0 Rectangle with rounded corners*
0 $1 Rounding radius*
0 $2 $3 $4 $5 $6 $7 $8 $9 X,Y pos of 4 corners*
0 Add a 4 corners polygon primitive as box body*
4,1,4,$2,$3,$4,$5,$6,$7,$8,$9,$2,$3,0*
0 Add four circle primitives for the rounded corners*
1,1,$1+$1,$2,$3*
1,1,$1+$1,$4,$5*
1,1,$1+$1,$6,$7*
1,1,$1+$1,$8,$9*
0 Add four rect primitives between the rounded corners*
20,1,$1+$1,$2,$3,$4,$5,0*
20,1,$1+$1,$4,$5,$6,$7,0*
20,1,$1+$1,$6,$7,$8,$9,0*
20,1,$1+$1,$8,$9,$2,$3,0*%
G04 Aperture macros list end*
%TA.AperFunction,ComponentPad*%
%ADD10C,1.500000*%
%TD*%
%TA.AperFunction,ComponentPad*%
%ADD11RoundRect,0.250000X0.550000X-0.550000X0.550000X0.550000X-0.550000X0.550000X-0.550000X-0.550000X0*%
%TD*%
%TA.AperFunction,ComponentPad*%
%ADD12C,1.600000*%
%TD*%
%TA.AperFunction,ComponentPad*%
%ADD13C,1.440000*%
%TD*%
%TA.AperFunction,ComponentPad*%
%ADD14R,1.050000X1.500000*%
%TD*%
%TA.AperFunction,ComponentPad*%
%ADD15O,1.050000X1.500000*%
%TD*%
%TA.AperFunction,ComponentPad*%
%ADD16R,2.500000X2.500000*%
%TD*%
%TA.AperFunction,ComponentPad*%
%ADD17O,2.500000X2.500000*%
%TD*%
%TA.AperFunction,ComponentPad*%
%ADD18C,2.600000*%
%TD*%
%TA.AperFunction,ComponentPad*%
%ADD19RoundRect,0.250000X-1.050000X-1.050000X1.050000X-1.050000X1.050000X1.050000X-1.050000X1.050000X0*%
%TD*%
%TA.AperFunction,ComponentPad*%
%ADD20RoundRect,0.249999X-0.850001X-0.850001X0.850001X-0.850001X0.850001X0.850001X-0.850001X0.850001X0*%
%TD*%
%TA.AperFunction,ComponentPad*%
%ADD21C,2.200000*%
%TD*%
%TA.AperFunction,Conductor*%
%ADD22C,0.200000*%
%TD*%
%ADD23C,1.500000*%
%ADD24RoundRect,0.250000X0.550000X-0.550000X0.550000X0.550000X-0.550000X0.550000X-0.550000X-0.550000X0*%
%ADD25C,1.600000*%
%ADD26C,1.440000*%
%ADD27R,1.050000X1.500000*%
%ADD28O,1.050000X1.500000*%
%ADD29R,2.500000X2.500000*%
%ADD30O,2.500000X2.500000*%
%ADD31C,2.600000*%
%ADD32RoundRect,0.250000X-1.050000X-1.050000X1.050000X-1.050000X1.050000X1.050000X-1.050000X1.050000X0*%
%ADD33RoundRect,0.249999X-0.850001X-0.850001X0.850001X-0.850001X0.850001X0.850001X-0.850001X0.850001X0*%
%ADD34C,2.200000*%
%ADD35C,0.150000*%
%ADD36C,0.120000*%
%TA.AperFunction,Profile*%
%ADD37C,0.050000*%
%TD*%
G04 APERTURE END LIST*
D10*
%TO.P,R1,2*%
%TO.N,Net-(U1A-+)*%
X118825000Y-124000000D03*
%TO.P,R1,1*%
%TO.N,+5V*%
X115425000Y-124000000D03*
%TD*%
D11*
%TO.P,U1,1*%
%TO.N,Net-(R3-Pad2)*%
X138135000Y-81575000D03*
D12*
%TO.P,U1,2,-_2*%
%TO.N,Net-(U1A--)*%
X140675000Y-81575000D03*
%TO.P,U1,3,+_3*%
%TO.N,Net-(U1A-+)*%
X143215000Y-81575000D03*
%TO.P,U1,4,V-_4*%
%TO.N,GND*%
X145755000Y-81575000D03*
%TO.P,U1,5*%
%TO.N,N/C*%
X145755000Y-73955000D03*
%TO.P,U1,6*%
X143215000Y-73955000D03*
%TO.P,U1,7*%
X140675000Y-73955000D03*
%TO.P,U1,8,V+_8*%
%TO.N,+5V*%
X138135000Y-73955000D03*
%TD*%
D13*
%TO.P,RV1,3,3_3*%
%TO.N,GND*%
X144000000Y-102825000D03*
%TO.P,RV1,2,2_2*%
%TO.N,Net-(U1A--)*%
X146540000Y-102825000D03*
%TO.P,RV1,1,1_1*%
%TO.N,+5V*%
X149080000Y-102825000D03*
%TD*%
D12*
%TO.P,R3,1*%
%TO.N,Net-(Q1-B)*%
X115000000Y-116265000D03*
%TO.P,R3,2*%
%TO.N,Net-(R3-Pad2)*%
X122620000Y-116265000D03*
%TD*%
%TO.P,R2,1*%
%TO.N,Net-(U1A-+)*%
X123500000Y-124500000D03*
%TO.P,R2,2*%
%TO.N,GND*%
X131120000Y-124500000D03*
%TD*%
D14*
%TO.P,Q1,1,C_1*%
%TO.N,Net-(D2-A)*%
X115755000Y-109195000D03*
D15*
%TO.P,Q1,2,B_2*%
%TO.N,Net-(Q1-B)*%
X117025000Y-109195000D03*
%TO.P,Q1,3,E_3*%
%TO.N,GND*%
X118295000Y-109195000D03*
%TD*%
D16*
%TO.P,K1,1*%
%TO.N,/AC_LIVE*%
X122500000Y-76970000D03*
D17*
%TO.P,K1,2*%
%TO.N,+5V*%
X116500000Y-78970000D03*
%TO.P,K1,3*%
%TO.N,unconnected-(K1-Pad3)*%
X116500000Y-91170000D03*
%TO.P,K1,4*%
%TO.N,Net-(J3-Pin_1)*%
X128500000Y-91170000D03*
%TO.P,K1,5*%
%TO.N,Net-(D2-A)*%
X128500000Y-78970000D03*
%TD*%
D18*
%TO.P,J3,2,Pin_2_2*%
%TO.N,/NEUTRAL*%
X152500000Y-126755000D03*
D19*
%TO.P,J3,1,Pin_1_1*%
%TO.N,Net-(J3-Pin_1)*%
X147420000Y-126755000D03*
%TD*%
D20*
%TO.P,D2,1,K_1*%
%TO.N,+5V*%
X116420000Y-101895000D03*
D21*
%TO.P,D2,2,A_2*%
%TO.N,Net-(D2-A)*%
X126580000Y-101895000D03*
%TD*%
D12*
%TO.P,C1,1*%
%TO.N,+5V*%
X135500000Y-124315000D03*
%TO.P,C1,2*%
%TO.N,GND*%
X140500000Y-124315000D03*
%TD*%
%TO.N,Net-(J3-Pin_1)*%
D22*
X147500000Y-120000000D02*
X147420000Y-120080000D01*
X153500000Y-120500000D02*
X148000000Y-120500000D01*
X153500000Y-91000000D02*
X153500000Y-120500000D01*
X147420000Y-120080000D02*
X147420000Y-126755000D01*
X148000000Y-120500000D02*
X147500000Y-120000000D01*
X153330000Y-91170000D02*
X153500000Y-91000000D01*
X128500000Y-91170000D02*
X153330000Y-91170000D01*
%TO.N,Net-(U1A-+)*%
X123000000Y-124000000D02*
X123500000Y-124500000D01*
X118825000Y-124000000D02*
X123000000Y-124000000D01*
%TO.N,+5V*%
X115425000Y-133575000D02*
X115425000Y-124000000D01*
X136000000Y-134000000D02*
X115000000Y-134000000D01*
X135500000Y-133500000D02*
X136000000Y-134000000D01*
X135500000Y-124315000D02*
X135500000Y-133500000D01*
X115000000Y-134000000D02*
X115425000Y-133575000D01*
X143500000Y-124500000D02*
X142585000Y-125415000D01*
X136600000Y-125415000D02*
X135500000Y-124315000D01*
X143000000Y-124000000D02*
X143500000Y-124500000D01*
X143000000Y-111500000D02*
X143000000Y-124000000D01*
X149000000Y-111500000D02*
X143000000Y-111500000D01*
X142585000Y-125415000D02*
X136600000Y-125415000D01*
X149080000Y-111420000D02*
X149000000Y-111500000D01*
X149080000Y-102825000D02*
X149080000Y-111420000D01*
%TO.N,Net-(U1A-+)*%
X123500000Y-124500000D02*
X123500000Y-120500000D01*
X110500000Y-70500000D02*
X111603022Y-69396978D01*
X123500000Y-120500000D02*
X123000000Y-121000000D01*
X123000000Y-121000000D02*
X110500000Y-121000000D01*
X153596886Y-69744084D02*
X153603022Y-70241102D01*
X110500000Y-121000000D02*
X110500000Y-70500000D01*
X153241102Y-69396978D02*
X153596886Y-69744084D01*
X111603022Y-69396978D02*
X153241102Y-69396978D01*
X153603022Y-70241102D02*
X153603022Y-79396978D01*
X153603022Y-79396978D02*
X145393022Y-79396978D01*
X145393022Y-79396978D02*
X143215000Y-81575000D01*
%TD*%
%TA.AperFunction,Conductor*%
%TO.N,GND*%
G36*
X159442539Y-65520185D02*
G01*
X159488294Y-65572989D01*
X159499500Y-65624500D01*
X159499500Y-139375500D01*
X159479815Y-139442539D01*
X159427011Y-139488294D01*
X159375500Y-139499500D01*
X105624500Y-139499500D01*
X105557461Y-139479815D01*
X105511706Y-139427011D01*
X105500500Y-139375500D01*
X105500500Y-123901577D01*
X114174500Y-123901577D01*
X114174500Y-124098422D01*
X114205290Y-124292826D01*
X114266117Y-124480029D01*
X114344489Y-124633841D01*
X114355476Y-124655405D01*
X114471172Y-124814646D01*
X114610354Y-124953828D01*
X114769594Y-125069523D01*
X114773386Y-125072278D01*
X114816051Y-125127608D01*
X114824500Y-125172596D01*
X114824500Y-133274901D01*
X114804815Y-133341940D01*
X114788181Y-133362582D01*
X114624214Y-133526548D01*
X114624215Y-133526549D01*
X114519478Y-133631286D01*
X114469361Y-133718094D01*
X114469359Y-133718096D01*
X114440425Y-133768209D01*
X114440424Y-133768210D01*
X114424544Y-133827472D01*
X114399499Y-133920943D01*
X114399499Y-133920944D01*
X114399499Y-133920945D01*
X114399499Y-134079054D01*
X114399498Y-134079054D01*
X114440423Y-134231785D01*
X114469358Y-134281900D01*
X114469359Y-134281904D01*
X114469360Y-134281904D01*
X114519479Y-134368714D01*
X114519481Y-134368717D01*
X114631284Y-134480520D01*
X114718095Y-134530639D01*
X114718097Y-134530641D01*
X114756151Y-134552611D01*
X114768215Y-134559577D01*
X114920943Y-134600501D01*
X114920946Y-134600501D01*
X115086653Y-134600501D01*
X115086669Y-134600500D01*
X135913331Y-134600500D01*
X135913347Y-134600501D01*
X135920943Y-134600501D01*
X136079056Y-134600501D01*
X136079058Y-134600501D01*
X136231785Y-134559577D01*
X136368716Y-134480520D01*
X136480520Y-134368716D01*
X136559577Y-134231785D01*
X136600501Y-134079058D01*
X136600501Y-133920943D01*
X136559577Y-133768216D01*
X136559573Y-133768209D01*
X136480524Y-133631290D01*
X136480518Y-133631282D01*
X136136819Y-133287583D01*
X136103334Y-133226260D01*
X136100500Y-133199902D01*
X136100500Y-126034785D01*
X136102210Y-126028960D01*
X136101061Y-126022998D01*
X136111941Y-125995819D01*
X136120185Y-125967746D01*
X136124771Y-125963771D01*
X136127029Y-125958133D01*
X136150876Y-125941151D01*
X136172989Y-125921991D01*
X136178997Y-125921126D01*
X136183944Y-125917605D01*
X136213179Y-125916212D01*
X136242147Y-125912047D01*
X136249220Y-125914495D01*
X136253734Y-125914280D01*
X136286500Y-125927398D01*
X136318096Y-125945640D01*
X136318097Y-125945641D01*
X136337692Y-125956954D01*
X136368215Y-125974577D01*
X136520943Y-126015501D01*
X136520946Y-126015501D01*
X136686653Y-126015501D01*
X136686669Y-126015500D01*
X142498331Y-126015500D01*
X142498347Y-126015501D01*
X142505943Y-126015501D01*
X142664054Y-126015501D01*
X142664057Y-126015501D01*
X142816785Y-125974577D01*
X142866904Y-125945639D01*
X142953716Y-125895520D01*
X143065520Y-125783716D01*
X143065520Y-125783714D01*
X143075728Y-125773507D01*
X143075730Y-125773504D01*
X143858506Y-124990728D01*
X143858511Y-124990724D01*
X143868714Y-124980520D01*
X143868716Y-124980520D01*
X143980520Y-124868716D01*
X144059577Y-124731785D01*
X144100501Y-124579058D01*
X144100501Y-124420943D01*
X144059577Y-124268216D01*
X143989274Y-124146446D01*
X143980524Y-124131290D01*
X143980518Y-124131282D01*
X143636819Y-123787583D01*
X143603334Y-123726260D01*
X143600500Y-123699902D01*
X143600500Y-112224500D01*
X143620185Y-112157461D01*
X143672989Y-112111706D01*
X143724500Y-112100500D01*
X148913331Y-112100500D01*
X148913347Y-112100501D01*
X148920943Y-112100501D01*
X149079054Y-112100501D01*
X149079057Y-112100501D01*
X149231785Y-112059577D01*
X149299468Y-112020500D01*
X149368716Y-111980520D01*
X149480520Y-111868716D01*
X149560520Y-111788716D01*
X149610639Y-111701904D01*
X149639577Y-111651785D01*
X149680500Y-111499057D01*
X149680500Y-111340943D01*
X149680500Y-103960513D01*
X149700185Y-103893474D01*
X149731614Y-103860195D01*
X149875102Y-103755945D01*
X150010945Y-103620102D01*
X150123865Y-103464681D01*
X150211082Y-103293509D01*
X150270447Y-103110801D01*
X150300500Y-102921055D01*
X150300500Y-102728945D01*
X150270447Y-102539199D01*
X150232332Y-102421891D01*
X150211083Y-102356493D01*
X150166903Y-102269785D01*
X150123865Y-102185319D01*
X150010945Y-102029898D01*
X149875102Y-101894055D01*
X149719681Y-101781135D01*
X149548506Y-101693916D01*
X149365802Y-101634553D01*
X149270928Y-101619526D01*
X149176055Y-101604500D01*
X148983945Y-101604500D01*
X148920696Y-101614517D01*
X148794197Y-101634553D01*
X148611493Y-101693916D01*
X148440318Y-101781135D01*
X148410502Y-101802798D01*
X148284898Y-101894055D01*
X148284896Y-101894057D01*
X148284895Y-101894057D01*
X148149057Y-102029895D01*
X148149057Y-102029896D01*
X148149055Y-102029898D01*
X148100560Y-102096645D01*
X148036135Y-102185318D01*
X147948916Y-102356493D01*
X147927931Y-102421081D01*
X147888494Y-102478756D01*
X147824135Y-102505955D01*
X147755289Y-102494041D01*
X147703813Y-102446797D01*
X147692069Y-102421081D01*
X147671083Y-102356493D01*
X147626903Y-102269785D01*
X147583865Y-102185319D01*
X147470945Y-102029898D01*
X147335102Y-101894055D01*
X147179681Y-101781135D01*
X147008506Y-101693916D01*
X146825802Y-101634553D01*
X146730928Y-101619526D01*
X146636055Y-101604500D01*
X146443945Y-101604500D01*
X146380696Y-101614517D01*
X146254197Y-101634553D01*
X146071493Y-101693916D01*
X145900318Y-101781135D01*
X145870502Y-101802798D01*
X145744898Y-101894055D01*
X145744896Y-101894057D01*
X145744895Y-101894057D01*
X145609057Y-102029895D01*
X145609057Y-102029896D01*
X145609055Y-102029898D01*
X145560560Y-102096645D01*
X145496135Y-102185318D01*
X145408917Y-102356492D01*
X145387667Y-102421892D01*
X145348229Y-102479567D01*
X145283870Y-102506765D01*
X145215024Y-102494850D01*
X145163548Y-102447605D01*
X145151805Y-102421891D01*
X145130616Y-102356680D01*
X145043434Y-102185577D01*
X145022201Y-102156352D01*
X145022200Y-102156351D01*
X144400000Y-102778552D01*
X144400000Y-102772339D01*
X144372741Y-102670606D01*
X144320080Y-102579394D01*
X144245606Y-102504920D01*
X144154394Y-102452259D01*
X144052661Y-102425000D01*
X144046447Y-102425000D01*
X144668646Y-101802798D01*
X144639415Y-101781561D01*
X144468321Y-101694383D01*
X144285684Y-101635040D01*
X144096015Y-101605000D01*
X143903985Y-101605000D01*
X143714315Y-101635040D01*
X143531678Y-101694383D01*
X143360578Y-101781564D01*
X143331352Y-101802798D01*
X143331351Y-101802798D01*
X143953554Y-102425000D01*
X143947339Y-102425000D01*
X143845606Y-102452259D01*
X143754394Y-102504920D01*
X143679920Y-102579394D01*
X143627259Y-102670606D01*
X143600000Y-102772339D01*
X143600000Y-102778553D01*
X142977798Y-102156351D01*
X142977798Y-102156352D01*
X142956564Y-102185578D01*
X142869383Y-102356678D01*
X142810040Y-102539315D01*
X142780000Y-102728984D01*
X142780000Y-102921015D01*
X142810040Y-103110684D01*
X142869383Y-103293321D01*
X142956561Y-103464415D01*
X142977798Y-103493646D01*
X143600000Y-102871445D01*
X143600000Y-102877661D01*
X143627259Y-102979394D01*
X143679920Y-103070606D01*
X143754394Y-103145080D01*
X143845606Y-103197741D01*
X143947339Y-103225000D01*
X143953554Y-103225000D01*
X143331351Y-103847200D01*
X143331352Y-103847201D01*
X143360577Y-103868434D01*
X143531678Y-103955616D01*
X143714315Y-104014959D01*
X143903985Y-104045000D01*
X144096015Y-104045000D01*
X144285684Y-104014959D01*
X144468321Y-103955616D01*
X144639419Y-103868436D01*
X144668646Y-103847201D01*
X144668646Y-103847200D01*
X144046447Y-103225000D01*
X144052661Y-103225000D01*
X144154394Y-103197741D01*
X144245606Y-103145080D01*
X144320080Y-103070606D01*
X144372741Y-102979394D01*
X144400000Y-102877661D01*
X144400000Y-102871446D01*
X145022200Y-103493646D01*
X145022201Y-103493646D01*
X145043436Y-103464419D01*
X145130616Y-103293319D01*
X145151805Y-103228108D01*
X145191242Y-103170433D01*
X145255600Y-103143234D01*
X145324447Y-103155148D01*
X145375923Y-103202392D01*
X145387667Y-103228108D01*
X145408916Y-103293505D01*
X145408917Y-103293506D01*
X145408918Y-103293509D01*
X145496135Y-103464681D01*
X145609055Y-103620102D01*
X145744898Y-103755945D01*
X145900319Y-103868865D01*
X145948617Y-103893474D01*
X146071493Y-103956083D01*
X146162845Y-103985764D01*
X146254199Y-104015447D01*
X146443945Y-104045500D01*
X146443946Y-104045500D01*
X146636054Y-104045500D01*
X146636055Y-104045500D01*
X146825801Y-104015447D01*
X147008509Y-103956082D01*
X147179681Y-103868865D01*
X147335102Y-103755945D01*
X147470945Y-103620102D01*
X147583865Y-103464681D01*
X147671082Y-103293509D01*
X147671144Y-103293319D01*
X147692069Y-103228919D01*
X147731506Y-103171243D01*
X147795864Y-103144044D01*
X147864711Y-103155958D01*
X147916187Y-103203202D01*
X147927931Y-103228919D01*
X147948915Y-103293504D01*
X147992090Y-103378239D01*
X148036135Y-103464681D01*
X148149055Y-103620102D01*
X148284898Y-103755945D01*
X148410500Y-103847200D01*
X148428386Y-103860195D01*
X148471051Y-103915525D01*
X148479500Y-103960513D01*
X148479500Y-110775500D01*
X148459815Y-110842539D01*
X148407011Y-110888294D01*
X148355500Y-110899500D01*
X142920943Y-110899500D01*
X142768216Y-110940423D01*
X142768209Y-110940426D01*
X142631290Y-111019475D01*
X142631282Y-111019481D01*
X142519481Y-111131282D01*
X142519475Y-111131290D01*
X142440426Y-111268209D01*
X142440423Y-111268216D01*
X142399500Y-111420943D01*
X142399500Y-123913330D01*
X142399499Y-123913348D01*
X142399499Y-124079054D01*
X142399498Y-124079054D01*
X142404688Y-124098422D01*
X142440423Y-124231785D01*
X142461457Y-124268216D01*
X142519480Y-124368716D01*
X142570331Y-124419567D01*
X142576289Y-124427904D01*
X142584538Y-124451612D01*
X142596568Y-124473642D01*
X142595824Y-124484043D01*
X142599251Y-124493892D01*
X142593374Y-124518293D01*
X142591584Y-124543334D01*
X142584804Y-124553883D01*
X142582893Y-124561820D01*
X142574611Y-124569742D01*
X142563083Y-124587681D01*
X142372584Y-124778181D01*
X142311261Y-124811666D01*
X142284903Y-124814500D01*
X141875276Y-124814500D01*
X141808237Y-124794815D01*
X141762482Y-124742011D01*
X141752538Y-124672853D01*
X141757345Y-124652183D01*
X141767988Y-124619425D01*
X141767989Y-124619418D01*
X141800000Y-124417317D01*
X141800000Y-124212682D01*
X141767990Y-124010582D01*
X141704755Y-123815968D01*
X141611859Y-123633650D01*
X141579474Y-123589077D01*
X141579474Y-123589076D01*
X140900000Y-124268551D01*
X140900000Y-124262339D01*
X140872741Y-124160606D01*
X140820080Y-124069394D01*
X140745606Y-123994920D01*
X140654394Y-123942259D01*
X140552661Y-123915000D01*
X140546446Y-123915000D01*
X141225922Y-123235524D01*
X141225921Y-123235523D01*
X141181359Y-123203147D01*
X141181350Y-123203141D01*
X140999031Y-123110244D01*
X140804417Y-123047009D01*
X140602317Y-123015000D01*
X140397683Y-123015000D01*
X140195582Y-123047009D01*
X140000968Y-123110244D01*
X139818644Y-123203143D01*
X139774077Y-123235523D01*
X139774077Y-123235524D01*
X140453554Y-123915000D01*
X140447339Y-123915000D01*
X140345606Y-123942259D01*
X140254394Y-123994920D01*
X140179920Y-124069394D01*
X140127259Y-124160606D01*
X140100000Y-124262339D01*
X140100000Y-124268553D01*
X139420524Y-123589077D01*
X139420523Y-123589077D01*
X139388143Y-123633644D01*
X139295244Y-123815968D01*
X139232009Y-124010582D01*
X139200000Y-124212682D01*
X139200000Y-124417317D01*
X139232010Y-124619418D01*
X139232011Y-124619425D01*
X139242655Y-124652183D01*
X139244650Y-124722024D01*
X139208569Y-124781857D01*
X139145868Y-124812684D01*
X139124724Y-124814500D01*
X136900097Y-124814500D01*
X136870656Y-124805855D01*
X136840670Y-124799332D01*
X136835654Y-124795577D01*
X136833058Y-124794815D01*
X136812416Y-124778181D01*
X136794077Y-124759842D01*
X136760592Y-124698519D01*
X136763828Y-124633841D01*
X136768265Y-124620185D01*
X136768477Y-124619534D01*
X136800500Y-124417352D01*
X136800500Y-124212648D01*
X136792257Y-124160606D01*
X136768477Y-124010465D01*
X136706150Y-123818644D01*
X136705220Y-123815781D01*
X136705218Y-123815778D01*
X136705218Y-123815776D01*
X136649881Y-123707173D01*
X136612287Y-123633390D01*
X136529887Y-123519975D01*
X136491969Y-123467784D01*
X136347213Y-123323028D01*
X136181613Y-123202715D01*
X136181612Y-123202714D01*
X136181610Y-123202713D01*
X136124653Y-123173691D01*
X135999223Y-123109781D01*
X135804534Y-123046522D01*
X135629995Y-123018878D01*
X135602352Y-123014500D01*
X135397648Y-123014500D01*
X135373329Y-123018351D01*
X135195465Y-123046522D01*
X135000776Y-123109781D01*
X134818386Y-123202715D01*
X134652786Y-123323028D01*
X134508032Y-123467782D01*
X134508031Y-123467784D01*
X134387715Y-123633386D01*
X134294781Y-123815776D01*
X134231522Y-124010465D01*
X134202221Y-124195466D01*
X134199500Y-124212648D01*
X134199500Y-124417352D01*
X134202704Y-124437580D01*
X134231522Y-124619534D01*
X134294781Y-124814223D01*
X134356227Y-124934815D01*
X134381953Y-124985306D01*
X134387715Y-124996613D01*
X134508028Y-125162213D01*
X134508034Y-125162219D01*
X134652781Y-125306966D01*
X134818390Y-125427287D01*
X134831793Y-125434116D01*
X134882589Y-125482088D01*
X134899500Y-125544601D01*
X134899500Y-133275500D01*
X134879815Y-133342539D01*
X134827011Y-133388294D01*
X134775500Y-133399500D01*
X116149500Y-133399500D01*
X116082461Y-133379815D01*
X116036706Y-133327011D01*
X116025500Y-133275500D01*
X116025500Y-125172596D01*
X116045185Y-125105557D01*
X116076614Y-125072278D01*
X116080403Y-125069524D01*
X116080405Y-125069524D01*
X116239646Y-124953828D01*
X116378828Y-124814646D01*
X116494524Y-124655405D01*
X116583884Y-124480025D01*
X116644709Y-124292826D01*
X116648608Y-124268209D01*
X116675500Y-124098422D01*
X116675500Y-123901577D01*
X116644709Y-123707173D01*
X116583882Y-123519970D01*
X116536743Y-123427455D01*
X116494524Y-123344595D01*
X116378828Y-123185354D01*
X116239646Y-123046172D01*
X116080405Y-122930476D01*
X115905029Y-122841117D01*
X115717826Y-122780290D01*
X115523422Y-122749500D01*
X115523417Y-122749500D01*
X115326583Y-122749500D01*
X115326578Y-122749500D01*
X115132173Y-122780290D01*
X114944970Y-122841117D01*
X114769594Y-122930476D01*
X114678741Y-122996485D01*
X114610354Y-123046172D01*
X114610352Y-123046174D01*
X114610351Y-123046174D01*
X114471174Y-123185351D01*
X114471174Y-123185352D01*
X114471172Y-123185354D01*
X114458245Y-123203147D01*
X114355476Y-123344594D01*
X114266117Y-123519970D01*
X114205290Y-123707173D01*
X114174500Y-123901577D01*
X105500500Y-123901577D01*
X105500500Y-70420943D01*
X109899499Y-70420943D01*
X109899499Y-70579057D01*
X109899500Y-70579060D01*
X109899500Y-121079057D01*
X109938472Y-121224500D01*
X109940423Y-121231783D01*
X109940426Y-121231790D01*
X110019475Y-121368709D01*
X110019479Y-121368714D01*
X110019480Y-121368716D01*
X110131284Y-121480520D01*
X110131286Y-121480521D01*
X110131290Y-121480524D01*
X110268209Y-121559573D01*
X110268216Y-121559577D01*
X110420943Y-121600500D01*
X110579057Y-121600500D01*
X122775500Y-121600500D01*
X122842539Y-121620185D01*
X122888294Y-121672989D01*
X122899500Y-121724500D01*
X122899500Y-123270397D01*
X122895213Y-123284993D01*
X122895867Y-123300194D01*
X122885569Y-123317839D01*
X122879815Y-123337436D01*
X122867774Y-123348330D01*
X122860650Y-123360539D01*
X122831805Y-123380877D01*
X122825728Y-123383973D01*
X122821790Y-123385980D01*
X122765487Y-123399500D01*
X119997596Y-123399500D01*
X119930557Y-123379815D01*
X119897278Y-123348386D01*
X119894523Y-123344594D01*
X119778828Y-123185354D01*
X119639646Y-123046172D01*
X119480405Y-122930476D01*
X119305029Y-122841117D01*
X119117826Y-122780290D01*
X118923422Y-122749500D01*
X118923417Y-122749500D01*
X118726583Y-122749500D01*
X118726578Y-122749500D01*
X118532173Y-122780290D01*
X118344970Y-122841117D01*
X118169594Y-122930476D01*
X118078741Y-122996485D01*
X118010354Y-123046172D01*
X118010352Y-123046174D01*
X118010351Y-123046174D01*
X117871174Y-123185351D01*
X117871174Y-123185352D01*
X117871172Y-123185354D01*
X117858245Y-123203147D01*
X117755476Y-123344594D01*
X117666117Y-123519970D01*
X117605290Y-123707173D01*
X117574500Y-123901577D01*
X117574500Y-124098422D01*
X117605290Y-124292826D01*
X117666117Y-124480029D01*
X117744489Y-124633841D01*
X117755476Y-124655405D01*
X117871172Y-124814646D01*
X118010354Y-124953828D01*
X118169595Y-125069524D01*
X118240314Y-125105557D01*
X118344970Y-125158882D01*
X118344972Y-125158882D01*
X118344975Y-125158884D01*
X118445317Y-125191487D01*
X118532173Y-125219709D01*
X118726578Y-125250500D01*
X118726583Y-125250500D01*
X118923422Y-125250500D01*
X119117826Y-125219709D01*
X119305025Y-125158884D01*
X119480405Y-125069524D01*
X119639646Y-124953828D01*
X119778828Y-124814646D01*
X119894524Y-124655405D01*
X119894524Y-124655403D01*
X119897278Y-124651614D01*
X119952608Y-124608949D01*
X119997596Y-124600500D01*
X122093301Y-124600500D01*
X122160340Y-124620185D01*
X122206095Y-124672989D01*
X122215774Y-124705102D01*
X122231522Y-124804534D01*
X122294781Y-124999223D01*
X122330602Y-125069524D01*
X122387585Y-125181359D01*
X122387715Y-125181613D01*
X122508028Y-125347213D01*
X122652786Y-125491971D01*
X122753720Y-125565302D01*
X122818390Y-125612287D01*
X122902215Y-125654998D01*
X123000776Y-125705218D01*
X123000778Y-125705218D01*
X123000781Y-125705220D01*
X123105137Y-125739127D01*
X123195465Y-125768477D01*
X123291661Y-125783713D01*
X123397648Y-125800500D01*
X123397649Y-125800500D01*
X123602351Y-125800500D01*
X123602352Y-125800500D01*
X123804534Y-125768477D01*
X123999219Y-125705220D01*
X124181610Y-125612287D01*
X124274773Y-125544601D01*
X124347213Y-125491971D01*
X124347215Y-125491968D01*
X124347219Y-125491966D01*
X124491966Y-125347219D01*
X124491968Y-125347215D01*
X124491971Y-125347213D01*
X124544732Y-125274590D01*
X124612287Y-125181610D01*
X124705220Y-124999219D01*
X124768477Y-124804534D01*
X124800500Y-124602352D01*
X124800500Y-124397682D01*
X129820000Y-124397682D01*
X129820000Y-124602317D01*
X129852009Y-124804417D01*
X129915244Y-124999031D01*
X130008141Y-125181350D01*
X130008147Y-125181359D01*
X130040523Y-125225921D01*
X130040524Y-125225922D01*
X130720000Y-124546446D01*
X130720000Y-124552661D01*
X130747259Y-124654394D01*
X130799920Y-124745606D01*
X130874394Y-124820080D01*
X130965606Y-124872741D01*
X131067339Y-124900000D01*
X131073553Y-124900000D01*
X130394076Y-125579474D01*
X130438650Y-125611859D01*
X130620968Y-125704755D01*
X130815582Y-125767990D01*
X131017683Y-125800000D01*
X131222317Y-125800000D01*
X131424417Y-125767990D01*
X131619031Y-125704755D01*
X131801349Y-125611859D01*
X131845921Y-125579474D01*
X131166447Y-124900000D01*
X131172661Y-124900000D01*
X131274394Y-124872741D01*
X131365606Y-124820080D01*
X131440080Y-124745606D01*
X131492741Y-124654394D01*
X131520000Y-124552661D01*
X131520000Y-124546447D01*
X132199474Y-125225921D01*
X132231859Y-125181349D01*
X132324755Y-124999031D01*
X132387990Y-124804417D01*
X132420000Y-124602317D01*
X132420000Y-124397682D01*
X132387990Y-124195582D01*
X132324755Y-124000968D01*
X132231859Y-123818650D01*
X132199474Y-123774077D01*
X132199474Y-123774076D01*
X131520000Y-124453551D01*
X131520000Y-124447339D01*
X131492741Y-124345606D01*
X131440080Y-124254394D01*
X131365606Y-124179920D01*
X131274394Y-124127259D01*
X131172661Y-124100000D01*
X131166446Y-124100000D01*
X131845922Y-123420524D01*
X131845921Y-123420523D01*
X131801359Y-123388147D01*
X131801350Y-123388141D01*
X131619031Y-123295244D01*
X131424417Y-123232009D01*
X131222317Y-123200000D01*
X131017683Y-123200000D01*
X130815582Y-123232009D01*
X130620968Y-123295244D01*
X130438644Y-123388143D01*
X130394077Y-123420523D01*
X130394077Y-123420524D01*
X131073554Y-124100000D01*
X131067339Y-124100000D01*
X130965606Y-124127259D01*
X130874394Y-124179920D01*
X130799920Y-124254394D01*
X130747259Y-124345606D01*
X130720000Y-124447339D01*
X130720000Y-124453553D01*
X130040524Y-123774077D01*
X130040523Y-123774077D01*
X130008143Y-123818644D01*
X129915244Y-124000968D01*
X129852009Y-124195582D01*
X129820000Y-124397682D01*
X124800500Y-124397682D01*
X124800500Y-124397648D01*
X124779069Y-124262339D01*
X124768477Y-124195465D01*
X124727514Y-124069394D01*
X124705220Y-124000781D01*
X124705218Y-124000778D01*
X124705218Y-124000776D01*
X124661512Y-123915000D01*
X124612287Y-123818390D01*
X124580092Y-123774077D01*
X124491971Y-123652786D01*
X124347213Y-123508028D01*
X124181610Y-123387712D01*
X124168200Y-123380879D01*
X124117406Y-123332903D01*
X124100500Y-123270397D01*
X124100500Y-120589059D01*
X124100501Y-120589046D01*
X124100501Y-120420943D01*
X124100501Y-120420942D01*
X124059577Y-120268215D01*
X123980520Y-120131284D01*
X123868716Y-120019480D01*
X123731785Y-119940423D01*
X123579058Y-119899499D01*
X123420943Y-119899499D01*
X123344579Y-119919961D01*
X123268214Y-119940423D01*
X123268209Y-119940426D01*
X123131290Y-120019475D01*
X123131282Y-120019481D01*
X122787584Y-120363181D01*
X122726261Y-120396666D01*
X122699903Y-120399500D01*
X111224500Y-120399500D01*
X111157461Y-120379815D01*
X111111706Y-120327011D01*
X111100500Y-120275500D01*
X111100500Y-116162648D01*
X113699500Y-116162648D01*
X113699500Y-116367351D01*
X113731522Y-116569534D01*
X113794781Y-116764223D01*
X113887715Y-116946613D01*
X114008028Y-117112213D01*
X114152786Y-117256971D01*
X114307749Y-117369556D01*
X114318390Y-117377287D01*
X114434607Y-117436503D01*
X114500776Y-117470218D01*
X114500778Y-117470218D01*
X114500781Y-117470220D01*
X114605137Y-117504127D01*
X114695465Y-117533477D01*
X114796557Y-117549488D01*
X114897648Y-117565500D01*
X114897649Y-117565500D01*
X115102351Y-117565500D01*
X115102352Y-117565500D01*
X115304534Y-117533477D01*
X115499219Y-117470220D01*
X115681610Y-117377287D01*
X115774590Y-117309732D01*
X115847213Y-117256971D01*
X115847215Y-117256968D01*
X115847219Y-117256966D01*
X115991966Y-117112219D01*
X115991968Y-117112215D01*
X115991971Y-117112213D01*
X116044732Y-117039590D01*
X116112287Y-116946610D01*
X116205220Y-116764219D01*
X116268477Y-116569534D01*
X116300500Y-116367352D01*
X116300500Y-116162648D01*
X121319500Y-116162648D01*
X121319500Y-116367351D01*
X121351522Y-116569534D01*
X121414781Y-116764223D01*
X121507715Y-116946613D01*
X121628028Y-117112213D01*
X121772786Y-117256971D01*
X121927749Y-117369556D01*
X121938390Y-117377287D01*
X122054607Y-117436503D01*
X122120776Y-117470218D01*
X122120778Y-117470218D01*
X122120781Y-117470220D01*
X122225137Y-117504127D01*
X122315465Y-117533477D01*
X122416557Y-117549488D01*
X122517648Y-117565500D01*
X122517649Y-117565500D01*
X122722351Y-117565500D01*
X122722352Y-117565500D01*
X122924534Y-117533477D01*
X123119219Y-117470220D01*
X123301610Y-117377287D01*
X123394590Y-117309732D01*
X123467213Y-117256971D01*
X123467215Y-117256968D01*
X123467219Y-117256966D01*
X123611966Y-117112219D01*
X123611968Y-117112215D01*
X123611971Y-117112213D01*
X123664732Y-117039590D01*
X123732287Y-116946610D01*
X123825220Y-116764219D01*
X123888477Y-116569534D01*
X123920500Y-116367352D01*
X123920500Y-116162648D01*
X123888477Y-115960466D01*
X123825220Y-115765781D01*
X123825218Y-115765778D01*
X123825218Y-115765776D01*
X123791503Y-115699607D01*
X123732287Y-115583390D01*
X123724556Y-115572749D01*
X123611971Y-115417786D01*
X123467213Y-115273028D01*
X123301613Y-115152715D01*
X123301612Y-115152714D01*
X123301610Y-115152713D01*
X123244653Y-115123691D01*
X123119223Y-115059781D01*
X122924534Y-114996522D01*
X122749995Y-114968878D01*
X122722352Y-114964500D01*
X122517648Y-114964500D01*
X122493329Y-114968351D01*
X122315465Y-114996522D01*
X122120776Y-115059781D01*
X121938386Y-115152715D01*
X121772786Y-115273028D01*
X121628028Y-115417786D01*
X121507715Y-115583386D01*
X121414781Y-115765776D01*
X121351522Y-115960465D01*
X121319500Y-116162648D01*
X116300500Y-116162648D01*
X116268477Y-115960466D01*
X116205220Y-115765781D01*
X116205218Y-115765778D01*
X116205218Y-115765776D01*
X116171503Y-115699607D01*
X116112287Y-115583390D01*
X116104556Y-115572749D01*
X115991971Y-115417786D01*
X115847213Y-115273028D01*
X115681613Y-115152715D01*
X115681612Y-115152714D01*
X115681610Y-115152713D01*
X115624653Y-115123691D01*
X115499223Y-115059781D01*
X115304534Y-114996522D01*
X115129995Y-114968878D01*
X115102352Y-114964500D01*
X114897648Y-114964500D01*
X114873329Y-114968351D01*
X114695465Y-114996522D01*
X114500776Y-115059781D01*
X114318386Y-115152715D01*
X114152786Y-115273028D01*
X114008028Y-115417786D01*
X113887715Y-115583386D01*
X113794781Y-115765776D01*
X113731522Y-115960465D01*
X113699500Y-116162648D01*
X111100500Y-116162648D01*
X111100500Y-108397135D01*
X114729500Y-108397135D01*
X114729500Y-109992870D01*
X114729501Y-109992876D01*
X114735908Y-110052483D01*
X114786202Y-110187328D01*
X114786206Y-110187335D01*
X114872452Y-110302544D01*
X114872455Y-110302547D01*
X114987664Y-110388793D01*
X114987671Y-110388797D01*
X115122517Y-110439091D01*
X115122516Y-110439091D01*
X115129444Y-110439835D01*
X115182127Y-110445500D01*
X116327872Y-110445499D01*
X116387483Y-110439091D01*
X116522331Y-110388796D01*
X116523430Y-110387972D01*
X116524717Y-110387492D01*
X116530112Y-110384547D01*
X116530535Y-110385322D01*
X116588887Y-110363552D01*
X116645198Y-110372673D01*
X116725873Y-110406091D01*
X116891777Y-110439091D01*
X116923992Y-110445499D01*
X116923996Y-110445500D01*
X116923997Y-110445500D01*
X117126004Y-110445500D01*
X117126005Y-110445499D01*
X117324127Y-110406091D01*
X117510756Y-110328786D01*
X117591562Y-110274792D01*
X117658234Y-110253917D01*
X117725614Y-110272401D01*
X117729340Y-110274795D01*
X117809479Y-110328343D01*
X117809486Y-110328347D01*
X117996016Y-110405609D01*
X117996025Y-110405612D01*
X118045000Y-110415353D01*
X118045000Y-109560865D01*
X118045067Y-109556789D01*
X118045400Y-109546638D01*
X118050500Y-109521003D01*
X118050500Y-109480830D01*
X118064745Y-109495075D01*
X118150255Y-109544444D01*
X118245630Y-109570000D01*
X118344370Y-109570000D01*
X118439745Y-109544444D01*
X118525255Y-109495075D01*
X118545000Y-109475330D01*
X118545000Y-110415352D01*
X118593974Y-110405612D01*
X118593983Y-110405609D01*
X118780513Y-110328347D01*
X118780526Y-110328340D01*
X118948399Y-110216170D01*
X118948403Y-110216167D01*
X119091167Y-110073403D01*
X119091170Y-110073399D01*
X119203340Y-109905526D01*
X119203347Y-109905513D01*
X119280609Y-109718983D01*
X119280612Y-109718974D01*
X119319999Y-109520958D01*
X119320000Y-109520955D01*
X119320000Y-109445000D01*
X118575330Y-109445000D01*
X118595075Y-109425255D01*
X118644444Y-109339745D01*
X118670000Y-109244370D01*
X118670000Y-109145630D01*
X118644444Y-109050255D01*
X118595075Y-108964745D01*
X118575330Y-108945000D01*
X119320000Y-108945000D01*
X119320000Y-108869045D01*
X119319999Y-108869041D01*
X119280612Y-108671025D01*
X119280609Y-108671016D01*
X119203347Y-108484486D01*
X119203340Y-108484473D01*
X119091170Y-108316600D01*
X119091167Y-108316596D01*
X118948403Y-108173832D01*
X118948399Y-108173829D01*
X118780526Y-108061659D01*
X118780513Y-108061652D01*
X118593984Y-107984390D01*
X118593977Y-107984388D01*
X118545000Y-107974645D01*
X118545000Y-108914670D01*
X118525255Y-108894925D01*
X118439745Y-108845556D01*
X118344370Y-108820000D01*
X118245630Y-108820000D01*
X118150255Y-108845556D01*
X118064745Y-108894925D01*
X118050500Y-108909170D01*
X118050500Y-108868997D01*
X118047383Y-108853326D01*
X118045000Y-108829134D01*
X118045000Y-107974646D01*
X118044999Y-107974645D01*
X117996022Y-107984388D01*
X117996015Y-107984390D01*
X117809481Y-108061654D01*
X117809479Y-108061655D01*
X117729337Y-108115204D01*
X117662660Y-108136081D01*
X117595280Y-108117596D01*
X117591558Y-108115204D01*
X117510754Y-108061212D01*
X117324127Y-107983909D01*
X117324119Y-107983907D01*
X117126007Y-107944500D01*
X117126003Y-107944500D01*
X116923997Y-107944500D01*
X116923992Y-107944500D01*
X116725880Y-107983907D01*
X116725868Y-107983910D01*
X116645198Y-108017325D01*
X116575729Y-108024794D01*
X116530342Y-108005036D01*
X116530114Y-108005454D01*
X116525447Y-108002905D01*
X116523432Y-108002028D01*
X116522331Y-108001204D01*
X116522330Y-108001203D01*
X116522328Y-108001202D01*
X116387482Y-107950908D01*
X116387483Y-107950908D01*
X116327883Y-107944501D01*
X116327881Y-107944500D01*
X116327873Y-107944500D01*
X116327864Y-107944500D01*
X115182129Y-107944500D01*
X115182123Y-107944501D01*
X115122516Y-107950908D01*
X114987671Y-108001202D01*
X114987664Y-108001206D01*
X114872455Y-108087452D01*
X114872452Y-108087455D01*
X114786206Y-108202664D01*
X114786202Y-108202671D01*
X114735908Y-108337517D01*
X114729501Y-108397116D01*
X114729500Y-108397135D01*
X111100500Y-108397135D01*
X111100500Y-100994982D01*
X114819500Y-100994982D01*
X114819500Y-102795017D01*
X114830000Y-102897796D01*
X114857039Y-102979394D01*
X114885186Y-103064335D01*
X114977288Y-103213656D01*
X115101344Y-103337712D01*
X115250665Y-103429814D01*
X115417202Y-103484999D01*
X115519990Y-103495500D01*
X115519995Y-103495500D01*
X117320005Y-103495500D01*
X117320010Y-103495500D01*
X117422798Y-103484999D01*
X117589335Y-103429814D01*
X117738656Y-103337712D01*
X117862712Y-103213656D01*
X117954814Y-103064335D01*
X118009999Y-102897798D01*
X118020500Y-102795010D01*
X118020500Y-101769038D01*
X124979500Y-101769038D01*
X124979500Y-102020961D01*
X125018910Y-102269785D01*
X125096760Y-102509383D01*
X125211131Y-102733847D01*
X125359201Y-102937649D01*
X125359205Y-102937654D01*
X125537345Y-103115794D01*
X125537350Y-103115798D01*
X125687655Y-103225000D01*
X125741155Y-103263870D01*
X125884184Y-103336747D01*
X125965616Y-103378239D01*
X125965618Y-103378239D01*
X125965621Y-103378241D01*
X126205215Y-103456090D01*
X126454038Y-103495500D01*
X126454039Y-103495500D01*
X126705961Y-103495500D01*
X126705962Y-103495500D01*
X126954785Y-103456090D01*
X127194379Y-103378241D01*
X127418845Y-103263870D01*
X127622656Y-103115793D01*
X127800793Y-102937656D01*
X127904431Y-102795010D01*
X127948869Y-102733847D01*
X127982513Y-102667817D01*
X128063239Y-102509383D01*
X128063239Y-102509382D01*
X128063241Y-102509379D01*
X128141090Y-102269785D01*
X128180500Y-102020962D01*
X128180500Y-101769038D01*
X128141090Y-101520215D01*
X128063241Y-101280621D01*
X128063239Y-101280618D01*
X128063239Y-101280616D01*
X128021747Y-101199184D01*
X127948870Y-101056155D01*
X127904425Y-100994982D01*
X127800798Y-100852350D01*
X127800794Y-100852345D01*
X127622654Y-100674205D01*
X127622649Y-100674201D01*
X127418848Y-100526132D01*
X127418847Y-100526131D01*
X127418845Y-100526130D01*
X127348747Y-100490413D01*
X127194383Y-100411760D01*
X126954785Y-100333910D01*
X126705962Y-100294500D01*
X126454038Y-100294500D01*
X126387738Y-100305001D01*
X126205214Y-100333910D01*
X125965616Y-100411760D01*
X125741151Y-100526132D01*
X125537350Y-100674201D01*
X125537345Y-100674205D01*
X125359205Y-100852345D01*
X125359201Y-100852350D01*
X125211132Y-101056151D01*
X125096760Y-101280616D01*
X125018910Y-101520214D01*
X124979500Y-101769038D01*
X118020500Y-101769038D01*
X118020500Y-100994990D01*
X118009999Y-100892202D01*
X117954814Y-100725665D01*
X117862712Y-100576344D01*
X117738656Y-100452288D01*
X117589335Y-100360186D01*
X117422798Y-100305001D01*
X117422796Y-100305000D01*
X117320017Y-100294500D01*
X117320010Y-100294500D01*
X115519990Y-100294500D01*
X115519982Y-100294500D01*
X115417203Y-100305000D01*
X115417202Y-100305001D01*
X115334669Y-100332349D01*
X115250667Y-100360185D01*
X115250662Y-100360187D01*
X115101342Y-100452289D01*
X114977289Y-100576342D01*
X114885187Y-100725662D01*
X114885186Y-100725665D01*
X114830001Y-100892202D01*
X114830001Y-100892203D01*
X114830000Y-100892203D01*
X114819500Y-100994982D01*
X111100500Y-100994982D01*
X111100500Y-91055258D01*
X114749500Y-91055258D01*
X114749500Y-91284741D01*
X114774446Y-91474215D01*
X114779452Y-91512238D01*
X114779453Y-91512240D01*
X114838842Y-91733887D01*
X114926650Y-91945876D01*
X114926657Y-91945890D01*
X115041392Y-92144617D01*
X115181081Y-92326661D01*
X115181089Y-92326670D01*
X115343330Y-92488911D01*
X115343338Y-92488918D01*
X115525382Y-92628607D01*
X115525385Y-92628608D01*
X115525388Y-92628611D01*
X115724112Y-92743344D01*
X115724117Y-92743346D01*
X115724123Y-92743349D01*
X115815480Y-92781190D01*
X115936113Y-92831158D01*
X116157762Y-92890548D01*
X116385266Y-92920500D01*
X116385273Y-92920500D01*
X116614727Y-92920500D01*
X116614734Y-92920500D01*
X116842238Y-92890548D01*
X117063887Y-92831158D01*
X117275888Y-92743344D01*
X117474612Y-92628611D01*
X117656661Y-92488919D01*
X117656665Y-92488914D01*
X117656670Y-92488911D01*
X117818911Y-92326670D01*
X117818914Y-92326665D01*
X117818919Y-92326661D01*
X117958611Y-92144612D01*
X118073344Y-91945888D01*
X118161158Y-91733887D01*
X118220548Y-91512238D01*
X118250500Y-91284734D01*
X118250500Y-91055266D01*
X118250499Y-91055258D01*
X126749500Y-91055258D01*
X126749500Y-91284741D01*
X126774446Y-91474215D01*
X126779452Y-91512238D01*
X126779453Y-91512240D01*
X126838842Y-91733887D01*
X126926650Y-91945876D01*
X126926657Y-91945890D01*
X127041392Y-92144617D01*
X127181081Y-92326661D01*
X127181089Y-92326670D01*
X127343330Y-92488911D01*
X127343338Y-92488918D01*
X127525382Y-92628607D01*
X127525385Y-92628608D01*
X127525388Y-92628611D01*
X127724112Y-92743344D01*
X127724117Y-92743346D01*
X127724123Y-92743349D01*
X127815480Y-92781190D01*
X127936113Y-92831158D01*
X128157762Y-92890548D01*
X128385266Y-92920500D01*
X128385273Y-92920500D01*
X128614727Y-92920500D01*
X128614734Y-92920500D01*
X128842238Y-92890548D01*
X129063887Y-92831158D01*
X129275888Y-92743344D01*
X129474612Y-92628611D01*
X129656661Y-92488919D01*
X129656665Y-92488914D01*
X129656670Y-92488911D01*
X129818911Y-92326670D01*
X129818914Y-92326665D01*
X129818919Y-92326661D01*
X129958611Y-92144612D01*
X130073344Y-91945888D01*
X130114285Y-91847048D01*
X130158125Y-91792644D01*
X130224420Y-91770579D01*
X130228846Y-91770500D01*
X152775500Y-91770500D01*
X152842539Y-91790185D01*
X152888294Y-91842989D01*
X152899500Y-91894500D01*
X152899500Y-119775500D01*
X152879815Y-119842539D01*
X152827011Y-119888294D01*
X152775500Y-119899500D01*
X148300098Y-119899500D01*
X148233059Y-119879815D01*
X148212417Y-119863181D01*
X147868718Y-119519483D01*
X147868716Y-119519481D01*
X147731785Y-119440423D01*
X147579057Y-119399499D01*
X147420943Y-119399499D01*
X147306397Y-119430192D01*
X147268214Y-119440423D01*
X147131284Y-119519481D01*
X147131280Y-119519484D01*
X147051288Y-119599474D01*
X147051284Y-119599480D01*
X146939481Y-119711282D01*
X146939479Y-119711285D01*
X146889361Y-119798094D01*
X146889359Y-119798096D01*
X146860425Y-119848209D01*
X146860424Y-119848210D01*
X146860423Y-119848215D01*
X146819499Y-120000943D01*
X146819499Y-120000945D01*
X146819499Y-120169046D01*
X146819500Y-120169059D01*
X146819500Y-124830500D01*
X146799815Y-124897539D01*
X146747011Y-124943294D01*
X146695500Y-124954500D01*
X146319998Y-124954500D01*
X146319980Y-124954501D01*
X146217203Y-124965000D01*
X146217200Y-124965001D01*
X146050668Y-125020185D01*
X146050663Y-125020187D01*
X145901342Y-125112289D01*
X145777289Y-125236342D01*
X145685187Y-125385663D01*
X145685185Y-125385668D01*
X145665679Y-125444534D01*
X145630001Y-125552203D01*
X145630001Y-125552204D01*
X145630000Y-125552204D01*
X145619500Y-125654983D01*
X145619500Y-127855001D01*
X145619501Y-127855018D01*
X145630000Y-127957796D01*
X145630001Y-127957799D01*
X145680962Y-128111587D01*
X145685186Y-128124334D01*
X145777288Y-128273656D01*
X145901344Y-128397712D01*
X146050666Y-128489814D01*
X146217203Y-128544999D01*
X146319991Y-128555500D01*
X148520008Y-128555499D01*
X148622797Y-128544999D01*
X148789334Y-128489814D01*
X148938656Y-128397712D01*
X149062712Y-128273656D01*
X149154814Y-128124334D01*
X149209999Y-127957797D01*
X149220500Y-127855009D01*
X149220499Y-126636995D01*
X150699500Y-126636995D01*
X150699500Y-126873004D01*
X150699501Y-126873020D01*
X150730306Y-127107010D01*
X150791394Y-127334993D01*
X150881714Y-127553045D01*
X150881719Y-127553056D01*
X150952677Y-127675957D01*
X150999727Y-127757450D01*
X150999729Y-127757453D01*
X150999730Y-127757454D01*
X151143406Y-127944697D01*
X151143412Y-127944704D01*
X151310295Y-128111587D01*
X151310302Y-128111593D01*
X151326909Y-128124336D01*
X151497550Y-128255273D01*
X151628918Y-128331118D01*
X151701943Y-128373280D01*
X151701948Y-128373282D01*
X151701951Y-128373284D01*
X151920007Y-128463606D01*
X152147986Y-128524693D01*
X152381989Y-128555500D01*
X152381996Y-128555500D01*
X152618004Y-128555500D01*
X152618011Y-128555500D01*
X152852014Y-128524693D01*
X153079993Y-128463606D01*
X153298049Y-128373284D01*
X153502450Y-128255273D01*
X153689699Y-128111592D01*
X153856592Y-127944699D01*
X154000273Y-127757450D01*
X154118284Y-127553049D01*
X154208606Y-127334993D01*
X154269693Y-127107014D01*
X154300500Y-126873011D01*
X154300500Y-126636989D01*
X154269693Y-126402986D01*
X154208606Y-126175007D01*
X154118284Y-125956951D01*
X154118282Y-125956948D01*
X154118280Y-125956943D01*
X154076118Y-125883918D01*
X154000273Y-125752550D01*
X153892317Y-125611859D01*
X153856593Y-125565302D01*
X153856587Y-125565295D01*
X153689704Y-125398412D01*
X153689697Y-125398406D01*
X153502454Y-125254730D01*
X153502453Y-125254729D01*
X153502450Y-125254727D01*
X153420957Y-125207677D01*
X153298056Y-125136719D01*
X153298045Y-125136714D01*
X153079993Y-125046394D01*
X152852010Y-124985306D01*
X152618020Y-124954501D01*
X152618017Y-124954500D01*
X152618011Y-124954500D01*
X152381989Y-124954500D01*
X152381983Y-124954500D01*
X152381979Y-124954501D01*
X152147989Y-124985306D01*
X151920006Y-125046394D01*
X151701954Y-125136714D01*
X151701943Y-125136719D01*
X151497545Y-125254730D01*
X151310302Y-125398406D01*
X151310295Y-125398412D01*
X151143412Y-125565295D01*
X151143406Y-125565302D01*
X150999730Y-125752545D01*
X150881719Y-125956943D01*
X150881714Y-125956954D01*
X150791394Y-126175006D01*
X150730306Y-126402989D01*
X150699501Y-126636979D01*
X150699500Y-126636995D01*
X149220499Y-126636995D01*
X149220499Y-125654992D01*
X149209999Y-125552203D01*
X149154814Y-125385666D01*
X149062712Y-125236344D01*
X148938656Y-125112288D01*
X148789334Y-125020186D01*
X148622797Y-124965001D01*
X148622795Y-124965000D01*
X148520016Y-124954500D01*
X148520009Y-124954500D01*
X148144500Y-124954500D01*
X148077461Y-124934815D01*
X148031706Y-124882011D01*
X148020500Y-124830500D01*
X148020500Y-121224500D01*
X148040185Y-121157461D01*
X148092989Y-121111706D01*
X148144500Y-121100500D01*
X153579055Y-121100500D01*
X153579057Y-121100500D01*
X153731784Y-121059577D01*
X153868716Y-120980520D01*
X153980520Y-120868716D01*
X154059577Y-120731784D01*
X154100500Y-120579057D01*
X154100500Y-90920943D01*
X154059577Y-90768216D01*
X154059573Y-90768209D01*
X153980524Y-90631290D01*
X153980518Y-90631282D01*
X153868717Y-90519481D01*
X153868709Y-90519475D01*
X153731790Y-90440426D01*
X153731786Y-90440424D01*
X153731784Y-90440423D01*
X153579057Y-90399500D01*
X153420942Y-90399500D01*
X153268215Y-90440423D01*
X153268214Y-90440423D01*
X153268212Y-90440424D01*
X153268209Y-90440425D01*
X153221380Y-90467462D01*
X153221363Y-90467472D01*
X153218095Y-90469360D01*
X153131284Y-90519480D01*
X153108754Y-90542009D01*
X153098343Y-90548901D01*
X153076406Y-90555665D01*
X153056260Y-90566666D01*
X153032415Y-90569229D01*
X153031575Y-90569489D01*
X153031138Y-90569367D01*
X153029902Y-90569500D01*
X130228846Y-90569500D01*
X130161807Y-90549815D01*
X130116052Y-90497011D01*
X130114285Y-90492952D01*
X130073349Y-90394123D01*
X130073346Y-90394117D01*
X130073344Y-90394112D01*
X129958611Y-90195388D01*
X129958608Y-90195385D01*
X129958607Y-90195382D01*
X129818918Y-90013338D01*
X129818911Y-90013330D01*
X129656670Y-89851089D01*
X129656661Y-89851081D01*
X129474617Y-89711392D01*
X129275890Y-89596657D01*
X129275876Y-89596650D01*
X129063887Y-89508842D01*
X128842238Y-89449452D01*
X128804215Y-89444446D01*
X128614741Y-89419500D01*
X128614734Y-89419500D01*
X128385266Y-89419500D01*
X128385258Y-89419500D01*
X128168715Y-89448009D01*
X128157762Y-89449452D01*
X128064076Y-89474554D01*
X127936112Y-89508842D01*
X127724123Y-89596650D01*
X127724109Y-89596657D01*
X127525382Y-89711392D01*
X127343338Y-89851081D01*
X127181081Y-90013338D01*
X127041392Y-90195382D01*
X126926657Y-90394109D01*
X126926650Y-90394123D01*
X126838842Y-90606112D01*
X126779453Y-90827759D01*
X126779451Y-90827770D01*
X126749500Y-91055258D01*
X118250499Y-91055258D01*
X118220548Y-90827762D01*
X118161158Y-90606113D01*
X118073344Y-90394112D01*
X117958611Y-90195388D01*
X117958608Y-90195385D01*
X117958607Y-90195382D01*
X117818918Y-90013338D01*
X117818911Y-90013330D01*
X117656670Y-89851089D01*
X117656661Y-89851081D01*
X117474617Y-89711392D01*
X117275890Y-89596657D01*
X117275876Y-89596650D01*
X117063887Y-89508842D01*
X116842238Y-89449452D01*
X116804215Y-89444446D01*
X116614741Y-89419500D01*
X116614734Y-89419500D01*
X116385266Y-89419500D01*
X116385258Y-89419500D01*
X116168715Y-89448009D01*
X116157762Y-89449452D01*
X116064076Y-89474554D01*
X115936112Y-89508842D01*
X115724123Y-89596650D01*
X115724109Y-89596657D01*
X115525382Y-89711392D01*
X115343338Y-89851081D01*
X115181081Y-90013338D01*
X115041392Y-90195382D01*
X114926657Y-90394109D01*
X114926650Y-90394123D01*
X114838842Y-90606112D01*
X114779453Y-90827759D01*
X114779451Y-90827770D01*
X114749500Y-91055258D01*
X111100500Y-91055258D01*
X111100500Y-78855258D01*
X114749500Y-78855258D01*
X114749500Y-79084741D01*
X114774446Y-79274215D01*
X114779452Y-79312238D01*
X114779453Y-79312240D01*
X114838842Y-79533887D01*
X114926650Y-79745876D01*
X114926657Y-79745890D01*
X115041392Y-79944617D01*
X115181081Y-80126661D01*
X115181089Y-80126670D01*
X115343330Y-80288911D01*
X115343338Y-80288918D01*
X115525382Y-80428607D01*
X115525385Y-80428608D01*
X115525388Y-80428611D01*
X115724112Y-80543344D01*
X115724117Y-80543346D01*
X115724123Y-80543349D01*
X115815480Y-80581190D01*
X115936113Y-80631158D01*
X116157762Y-80690548D01*
X116385266Y-80720500D01*
X116385273Y-80720500D01*
X116614727Y-80720500D01*
X116614734Y-80720500D01*
X116842238Y-80690548D01*
X117063887Y-80631158D01*
X117275888Y-80543344D01*
X117474612Y-80428611D01*
X117656661Y-80288919D01*
X117656665Y-80288914D01*
X117656670Y-80288911D01*
X117818911Y-80126670D01*
X117818914Y-80126665D01*
X117818919Y-80126661D01*
X117958611Y-79944612D01*
X118073344Y-79745888D01*
X118161158Y-79533887D01*
X118220548Y-79312238D01*
X118250500Y-79084734D01*
X118250500Y-78855266D01*
X118250499Y-78855258D01*
X126749500Y-78855258D01*
X126749500Y-79084741D01*
X126774446Y-79274215D01*
X126779452Y-79312238D01*
X126779453Y-79312240D01*
X126838842Y-79533887D01*
X126926650Y-79745876D01*
X126926657Y-79745890D01*
X127041392Y-79944617D01*
X127181081Y-80126661D01*
X127181089Y-80126670D01*
X127343330Y-80288911D01*
X127343338Y-80288918D01*
X127525382Y-80428607D01*
X127525385Y-80428608D01*
X127525388Y-80428611D01*
X127724112Y-80543344D01*
X127724117Y-80543346D01*
X127724123Y-80543349D01*
X127815480Y-80581190D01*
X127936113Y-80631158D01*
X128157762Y-80690548D01*
X128385266Y-80720500D01*
X128385273Y-80720500D01*
X128614727Y-80720500D01*
X128614734Y-80720500D01*
X128842238Y-80690548D01*
X129063887Y-80631158D01*
X129275888Y-80543344D01*
X129474612Y-80428611D01*
X129656661Y-80288919D01*
X129656665Y-80288914D01*
X129656670Y-80288911D01*
X129818911Y-80126670D01*
X129818914Y-80126665D01*
X129818919Y-80126661D01*
X129958611Y-79944612D01*
X130073344Y-79745888D01*
X130161158Y-79533887D01*
X130220548Y-79312238D01*
X130250500Y-79084734D01*
X130250500Y-78855266D01*
X130220548Y-78627762D01*
X130161158Y-78406113D01*
X130073344Y-78194112D01*
X129958611Y-77995388D01*
X129958608Y-77995385D01*
X129958607Y-77995382D01*
X129818918Y-77813338D01*
X129818911Y-77813330D01*
X129656670Y-77651089D01*
X129656661Y-77651081D01*
X129474617Y-77511392D01*
X129275890Y-77396657D01*
X129275876Y-77396650D01*
X129063887Y-77308842D01*
X128842238Y-77249452D01*
X128804215Y-77244446D01*
X128614741Y-77219500D01*
X128614734Y-77219500D01*
X128385266Y-77219500D01*
X128385258Y-77219500D01*
X128168715Y-77248009D01*
X128157762Y-77249452D01*
X128064076Y-77274554D01*
X127936112Y-77308842D01*
X127724123Y-77396650D01*
X127724109Y-77396657D01*
X127525382Y-77511392D01*
X127343338Y-77651081D01*
X127181081Y-77813338D01*
X127041392Y-77995382D01*
X126926657Y-78194109D01*
X126926650Y-78194123D01*
X126838842Y-78406112D01*
X126779453Y-78627759D01*
X126779451Y-78627770D01*
X126749500Y-78855258D01*
X118250499Y-78855258D01*
X118220548Y-78627762D01*
X118161158Y-78406113D01*
X118073344Y-78194112D01*
X117958611Y-77995388D01*
X117958608Y-77995385D01*
X117958607Y-77995382D01*
X117818918Y-77813338D01*
X117818911Y-77813330D01*
X117656670Y-77651089D01*
X117656661Y-77651081D01*
X117474617Y-77511392D01*
X117275890Y-77396657D01*
X117275876Y-77396650D01*
X117063887Y-77308842D01*
X116842238Y-77249452D01*
X116804215Y-77244446D01*
X116614741Y-77219500D01*
X116614734Y-77219500D01*
X116385266Y-77219500D01*
X116385258Y-77219500D01*
X116168715Y-77248009D01*
X116157762Y-77249452D01*
X116064076Y-77274554D01*
X115936112Y-77308842D01*
X115724123Y-77396650D01*
X115724109Y-77396657D01*
X115525382Y-77511392D01*
X115343338Y-77651081D01*
X115181081Y-77813338D01*
X115041392Y-77995382D01*
X114926657Y-78194109D01*
X114926650Y-78194123D01*
X114838842Y-78406112D01*
X114779453Y-78627759D01*
X114779451Y-78627770D01*
X114749500Y-78855258D01*
X111100500Y-78855258D01*
X111100500Y-75672135D01*
X120749500Y-75672135D01*
X120749500Y-78267870D01*
X120749501Y-78267876D01*
X120755908Y-78327483D01*
X120806202Y-78462328D01*
X120806206Y-78462335D01*
X120892452Y-78577544D01*
X120892455Y-78577547D01*
X121007664Y-78663793D01*
X121007671Y-78663797D01*
X121142517Y-78714091D01*
X121142516Y-78714091D01*
X121149444Y-78714835D01*
X121202127Y-78720500D01*
X123797872Y-78720499D01*
X123857483Y-78714091D01*
X123992331Y-78663796D01*
X124107546Y-78577546D01*
X124193796Y-78462331D01*
X124244091Y-78327483D01*
X124250500Y-78267873D01*
X124250499Y-75672128D01*
X124244091Y-75612517D01*
X124193796Y-75477669D01*
X124193795Y-75477668D01*
X124193793Y-75477664D01*
X124107547Y-75362455D01*
X124107544Y-75362452D01*
X123992335Y-75276206D01*
X123992328Y-75276202D01*
X123857482Y-75225908D01*
X123857483Y-75225908D01*
X123797883Y-75219501D01*
X123797881Y-75219500D01*
X123797873Y-75219500D01*
X123797864Y-75219500D01*
X121202129Y-75219500D01*
X121202123Y-75219501D01*
X121142516Y-75225908D01*
X121007671Y-75276202D01*
X121007664Y-75276206D01*
X120892455Y-75362452D01*
X120892452Y-75362455D01*
X120806206Y-75477664D01*
X120806202Y-75477671D01*
X120755908Y-75612517D01*
X120749501Y-75672116D01*
X120749501Y-75672123D01*
X120749500Y-75672135D01*
X111100500Y-75672135D01*
X111100500Y-73852648D01*
X136834500Y-73852648D01*
X136834500Y-74057351D01*
X136866522Y-74259534D01*
X136929781Y-74454223D01*
X137022715Y-74636613D01*
X137143028Y-74802213D01*
X137287786Y-74946971D01*
X137442749Y-75059556D01*
X137453390Y-75067287D01*
X137569607Y-75126503D01*
X137635776Y-75160218D01*
X137635778Y-75160218D01*
X137635781Y-75160220D01*
X137740137Y-75194127D01*
X137830465Y-75223477D01*
X137931557Y-75239488D01*
X138032648Y-75255500D01*
X138032649Y-75255500D01*
X138237351Y-75255500D01*
X138237352Y-75255500D01*
X138439534Y-75223477D01*
X138634219Y-75160220D01*
X138816610Y-75067287D01*
X138909590Y-74999732D01*
X138982213Y-74946971D01*
X138982215Y-74946968D01*
X138982219Y-74946966D01*
X139126966Y-74802219D01*
X139126968Y-74802215D01*
X139126971Y-74802213D01*
X139247284Y-74636614D01*
X139247285Y-74636613D01*
X139247287Y-74636610D01*
X139294516Y-74543917D01*
X139342489Y-74493123D01*
X139410310Y-74476328D01*
X139476445Y-74498865D01*
X139515485Y-74543919D01*
X139562715Y-74636614D01*
X139683028Y-74802213D01*
X139827786Y-74946971D01*
X139982749Y-75059556D01*
X139993390Y-75067287D01*
X140109607Y-75126503D01*
X140175776Y-75160218D01*
X140175778Y-75160218D01*
X140175781Y-75160220D01*
X140280137Y-75194127D01*
X140370465Y-75223477D01*
X140471557Y-75239488D01*
X140572648Y-75255500D01*
X140572649Y-75255500D01*
X140777351Y-75255500D01*
X140777352Y-75255500D01*
X140979534Y-75223477D01*
X141174219Y-75160220D01*
X141356610Y-75067287D01*
X141449590Y-74999732D01*
X141522213Y-74946971D01*
X141522215Y-74946968D01*
X141522219Y-74946966D01*
X141666966Y-74802219D01*
X141666968Y-74802215D01*
X141666971Y-74802213D01*
X141787284Y-74636614D01*
X141787285Y-74636613D01*
X141787287Y-74636610D01*
X141834516Y-74543917D01*
X141882489Y-74493123D01*
X141950310Y-74476328D01*
X142016445Y-74498865D01*
X142055485Y-74543919D01*
X142102715Y-74636614D01*
X142223028Y-74802213D01*
X142367786Y-74946971D01*
X142522749Y-75059556D01*
X142533390Y-75067287D01*
X142649607Y-75126503D01*
X142715776Y-75160218D01*
X142715778Y-75160218D01*
X142715781Y-75160220D01*
X142820137Y-75194127D01*
X142910465Y-75223477D01*
X143011557Y-75239488D01*
X143112648Y-75255500D01*
X143112649Y-75255500D01*
X143317351Y-75255500D01*
X143317352Y-75255500D01*
X143519534Y-75223477D01*
X143714219Y-75160220D01*
X143896610Y-75067287D01*
X143989590Y-74999732D01*
X144062213Y-74946971D01*
X144062215Y-74946968D01*
X144062219Y-74946966D01*
X144206966Y-74802219D01*
X144206968Y-74802215D01*
X144206971Y-74802213D01*
X144327284Y-74636614D01*
X144327285Y-74636613D01*
X144327287Y-74636610D01*
X144374516Y-74543917D01*
X144422489Y-74493123D01*
X144490310Y-74476328D01*
X144556445Y-74498865D01*
X144595485Y-74543919D01*
X144642715Y-74636614D01*
X144763028Y-74802213D01*
X144907786Y-74946971D01*
X145062749Y-75059556D01*
X145073390Y-75067287D01*
X145189607Y-75126503D01*
X145255776Y-75160218D01*
X145255778Y-75160218D01*
X145255781Y-75160220D01*
X145360137Y-75194127D01*
X145450465Y-75223477D01*
X145551557Y-75239488D01*
X145652648Y-75255500D01*
X145652649Y-75255500D01*
X145857351Y-75255500D01*
X145857352Y-75255500D01*
X146059534Y-75223477D01*
X146254219Y-75160220D01*
X146436610Y-75067287D01*
X146529590Y-74999732D01*
X146602213Y-74946971D01*
X146602215Y-74946968D01*
X146602219Y-74946966D01*
X146746966Y-74802219D01*
X146746968Y-74802215D01*
X146746971Y-74802213D01*
X146799732Y-74729590D01*
X146867287Y-74636610D01*
X146960220Y-74454219D01*
X147023477Y-74259534D01*
X147055500Y-74057352D01*
X147055500Y-73852648D01*
X147023477Y-73650466D01*
X146960220Y-73455781D01*
X146960218Y-73455778D01*
X146960218Y-73455776D01*
X146914515Y-73366080D01*
X146867287Y-73273390D01*
X146859556Y-73262749D01*
X146746971Y-73107786D01*
X146602213Y-72963028D01*
X146436613Y-72842715D01*
X146436612Y-72842714D01*
X146436610Y-72842713D01*
X146379653Y-72813691D01*
X146254223Y-72749781D01*
X146059534Y-72686522D01*
X145884995Y-72658878D01*
X145857352Y-72654500D01*
X145652648Y-72654500D01*
X145628329Y-72658351D01*
X145450465Y-72686522D01*
X145255776Y-72749781D01*
X145073386Y-72842715D01*
X144907786Y-72963028D01*
X144763028Y-73107786D01*
X144642715Y-73273386D01*
X144595485Y-73366080D01*
X144547510Y-73416876D01*
X144479689Y-73433671D01*
X144413554Y-73411134D01*
X144374515Y-73366080D01*
X144373883Y-73364840D01*
X144327287Y-73273390D01*
X144319556Y-73262749D01*
X144206971Y-73107786D01*
X144062213Y-72963028D01*
X143896613Y-72842715D01*
X143896612Y-72842714D01*
X143896610Y-72842713D01*
X143839653Y-72813691D01*
X143714223Y-72749781D01*
X143519534Y-72686522D01*
X143344995Y-72658878D01*
X143317352Y-72654500D01*
X143112648Y-72654500D01*
X143088329Y-72658351D01*
X142910465Y-72686522D01*
X142715776Y-72749781D01*
X142533386Y-72842715D01*
X142367786Y-72963028D01*
X142223028Y-73107786D01*
X142102715Y-73273386D01*
X142055485Y-73366080D01*
X142007510Y-73416876D01*
X141939689Y-73433671D01*
X141873554Y-73411134D01*
X141834515Y-73366080D01*
X141833883Y-73364840D01*
X141787287Y-73273390D01*
X141779556Y-73262749D01*
X141666971Y-73107786D01*
X141522213Y-72963028D01*
X141356613Y-72842715D01*
X141356612Y-72842714D01*
X141356610Y-72842713D01*
X141299653Y-72813691D01*
X141174223Y-72749781D01*
X140979534Y-72686522D01*
X140804995Y-72658878D01*
X140777352Y-72654500D01*
X140572648Y-72654500D01*
X140548329Y-72658351D01*
X140370465Y-72686522D01*
X140175776Y-72749781D01*
X139993386Y-72842715D01*
X139827786Y-72963028D01*
X139683028Y-73107786D01*
X139562715Y-73273386D01*
X139515485Y-73366080D01*
X139467510Y-73416876D01*
X139399689Y-73433671D01*
X139333554Y-73411134D01*
X139294515Y-73366080D01*
X139293883Y-73364840D01*
X139247287Y-73273390D01*
X139239556Y-73262749D01*
X139126971Y-73107786D01*
X138982213Y-72963028D01*
X138816613Y-72842715D01*
X138816612Y-72842714D01*
X138816610Y-72842713D01*
X138759653Y-72813691D01*
X138634223Y-72749781D01*
X138439534Y-72686522D01*
X138264995Y-72658878D01*
X138237352Y-72654500D01*
X138032648Y-72654500D01*
X138008329Y-72658351D01*
X137830465Y-72686522D01*
X137635776Y-72749781D01*
X137453386Y-72842715D01*
X137287786Y-72963028D01*
X137143028Y-73107786D01*
X137022715Y-73273386D01*
X136929781Y-73455776D01*
X136866522Y-73650465D01*
X136834500Y-73852648D01*
X111100500Y-73852648D01*
X111100500Y-70800097D01*
X111120185Y-70733058D01*
X111136819Y-70712416D01*
X111815439Y-70033797D01*
X111876762Y-70000312D01*
X111903120Y-69997478D01*
X152876989Y-69997478D01*
X152884936Y-69999811D01*
X152893119Y-69998532D01*
X152917966Y-70009510D01*
X152944028Y-70017163D01*
X152949450Y-70023421D01*
X152957028Y-70026769D01*
X152971998Y-70049442D01*
X152989783Y-70069967D01*
X152991956Y-70079670D01*
X152995526Y-70085076D01*
X153000980Y-70119946D01*
X153002513Y-70244055D01*
X153002522Y-70245587D01*
X153002522Y-78672478D01*
X152982837Y-78739517D01*
X152930033Y-78785272D01*
X152878522Y-78796478D01*
X145472079Y-78796478D01*
X145313964Y-78796478D01*
X145161237Y-78837401D01*
X145161236Y-78837401D01*
X145161234Y-78837402D01*
X145161231Y-78837403D01*
X145111118Y-78866337D01*
X145111117Y-78866338D01*
X145067711Y-78891398D01*
X145024307Y-78916457D01*
X145024304Y-78916459D01*
X144912500Y-79028264D01*
X143659842Y-80280921D01*
X143598519Y-80314406D01*
X143533848Y-80311173D01*
X143519534Y-80306522D01*
X143344995Y-80278878D01*
X143317352Y-80274500D01*
X143112648Y-80274500D01*
X143088329Y-80278351D01*
X142910465Y-80306522D01*
X142715776Y-80369781D01*
X142533386Y-80462715D01*
X142367786Y-80583028D01*
X142223028Y-80727786D01*
X142102715Y-80893386D01*
X142055485Y-80986080D01*
X142007510Y-81036876D01*
X141939689Y-81053671D01*
X141873554Y-81031134D01*
X141834515Y-80986080D01*
X141787419Y-80893650D01*
X141787287Y-80893390D01*
X141755092Y-80849077D01*
X141666971Y-80727786D01*
X141522213Y-80583028D01*
X141356613Y-80462715D01*
X141356612Y-80462714D01*
X141356610Y-80462713D01*
X141289673Y-80428607D01*
X141174223Y-80369781D01*
X140979534Y-80306522D01*
X140804995Y-80278878D01*
X140777352Y-80274500D01*
X140572648Y-80274500D01*
X140548329Y-80278351D01*
X140370465Y-80306522D01*
X140175776Y-80369781D01*
X139993386Y-80462715D01*
X139827786Y-80583028D01*
X139683032Y-80727782D01*
X139683028Y-80727787D01*
X139614978Y-80821451D01*
X139559648Y-80864117D01*
X139490035Y-80870096D01*
X139428240Y-80837490D01*
X139396954Y-80787570D01*
X139377144Y-80727787D01*
X139369814Y-80705666D01*
X139277712Y-80556344D01*
X139153656Y-80432288D01*
X139004334Y-80340186D01*
X138837797Y-80285001D01*
X138837795Y-80285000D01*
X138735010Y-80274500D01*
X137534998Y-80274500D01*
X137534981Y-80274501D01*
X137432203Y-80285000D01*
X137432200Y-80285001D01*
X137265668Y-80340185D01*
X137265663Y-80340187D01*
X137116342Y-80432289D01*
X136992289Y-80556342D01*
X136900187Y-80705663D01*
X136900186Y-80705666D01*
X136845001Y-80872203D01*
X136845001Y-80872204D01*
X136845000Y-80872204D01*
X136834500Y-80974983D01*
X136834500Y-82175001D01*
X136834501Y-82175018D01*
X136845000Y-82277796D01*
X136845001Y-82277799D01*
X136861818Y-82328548D01*
X136900186Y-82444334D01*
X136992288Y-82593656D01*
X137116344Y-82717712D01*
X137265666Y-82809814D01*
X137432203Y-82864999D01*
X137534991Y-82875500D01*
X138735008Y-82875499D01*
X138837797Y-82864999D01*
X139004334Y-82809814D01*
X139153656Y-82717712D01*
X139277712Y-82593656D01*
X139369814Y-82444334D01*
X139396955Y-82362427D01*
X139436726Y-82304984D01*
X139501242Y-82278161D01*
X139570018Y-82290476D01*
X139614977Y-82328547D01*
X139683030Y-82422213D01*
X139683034Y-82422219D01*
X139827786Y-82566971D01*
X139948226Y-82654474D01*
X139993390Y-82687287D01*
X140109607Y-82746503D01*
X140175776Y-82780218D01*
X140175778Y-82780218D01*
X140175781Y-82780220D01*
X140266856Y-82809812D01*
X140370465Y-82843477D01*
X140471557Y-82859488D01*
X140572648Y-82875500D01*
X140572649Y-82875500D01*
X140777351Y-82875500D01*
X140777352Y-82875500D01*
X140979534Y-82843477D01*
X141174219Y-82780220D01*
X141356610Y-82687287D01*
X141485482Y-82593657D01*
X141522213Y-82566971D01*
X141522215Y-82566968D01*
X141522219Y-82566966D01*
X141666966Y-82422219D01*
X141666968Y-82422215D01*
X141666971Y-82422213D01*
X141787284Y-82256614D01*
X141787286Y-82256611D01*
X141787287Y-82256610D01*
X141834516Y-82163917D01*
X141882489Y-82113123D01*
X141950310Y-82096328D01*
X142016445Y-82118865D01*
X142055483Y-82163917D01*
X142061140Y-82175018D01*
X142102715Y-82256614D01*
X142223028Y-82422213D01*
X142367786Y-82566971D01*
X142488226Y-82654474D01*
X142533390Y-82687287D01*
X142649607Y-82746503D01*
X142715776Y-82780218D01*
X142715778Y-82780218D01*
X142715781Y-82780220D01*
X142806856Y-82809812D01*
X142910465Y-82843477D01*
X143011557Y-82859488D01*
X143112648Y-82875500D01*
X143112649Y-82875500D01*
X143317351Y-82875500D01*
X143317352Y-82875500D01*
X143519534Y-82843477D01*
X143714219Y-82780220D01*
X143896610Y-82687287D01*
X144025482Y-82593657D01*
X144062213Y-82566971D01*
X144062215Y-82566968D01*
X144062219Y-82566966D01*
X144206966Y-82422219D01*
X144206968Y-82422215D01*
X144206971Y-82422213D01*
X144311894Y-82277797D01*
X144327287Y-82256610D01*
X144374795Y-82163369D01*
X144422769Y-82112573D01*
X144490590Y-82095778D01*
X144556725Y-82118315D01*
X144595765Y-82163369D01*
X144643141Y-82256350D01*
X144643147Y-82256359D01*
X144675523Y-82300921D01*
X144675524Y-82300922D01*
X145355000Y-81621446D01*
X145355000Y-81627661D01*
X145382259Y-81729394D01*
X145434920Y-81820606D01*
X145509394Y-81895080D01*
X145600606Y-81947741D01*
X145702339Y-81975000D01*
X145708553Y-81975000D01*
X145029076Y-82654474D01*
X145073650Y-82686859D01*
X145255968Y-82779755D01*
X145450582Y-82842990D01*
X145652683Y-82875000D01*
X145857317Y-82875000D01*
X146059417Y-82842990D01*
X146254031Y-82779755D01*
X146436349Y-82686859D01*
X146480921Y-82654474D01*
X145801447Y-81975000D01*
X145807661Y-81975000D01*
X145909394Y-81947741D01*
X146000606Y-81895080D01*
X146075080Y-81820606D01*
X146127741Y-81729394D01*
X146155000Y-81627661D01*
X146155000Y-81621447D01*
X146834474Y-82300921D01*
X146866859Y-82256349D01*
X146959755Y-82074031D01*
X147022990Y-81879417D01*
X147055000Y-81677317D01*
X147055000Y-81472682D01*
X147022990Y-81270582D01*
X146959755Y-81075968D01*
X146866859Y-80893650D01*
X146834474Y-80849077D01*
X146834474Y-80849076D01*
X146155000Y-81528551D01*
X146155000Y-81522339D01*
X146127741Y-81420606D01*
X146075080Y-81329394D01*
X146000606Y-81254920D01*
X145909394Y-81202259D01*
X145807661Y-81175000D01*
X145801446Y-81175000D01*
X146480922Y-80495524D01*
X146480921Y-80495523D01*
X146436359Y-80463147D01*
X146436350Y-80463141D01*
X146254031Y-80370244D01*
X146059417Y-80307009D01*
X145857317Y-80275000D01*
X145663597Y-80275000D01*
X145642351Y-80268761D01*
X145620263Y-80267182D01*
X145609479Y-80259109D01*
X145596558Y-80255315D01*
X145582058Y-80238581D01*
X145564330Y-80225310D01*
X145559622Y-80212689D01*
X145550803Y-80202511D01*
X145547651Y-80180593D01*
X145539913Y-80159846D01*
X145542775Y-80146685D01*
X145540859Y-80133353D01*
X145550058Y-80113209D01*
X145554765Y-80091573D01*
X145568033Y-80073847D01*
X145569884Y-80069797D01*
X145575916Y-80063319D01*
X145605438Y-80033797D01*
X145666761Y-80000312D01*
X145693119Y-79997478D01*
X153682077Y-79997478D01*
X153682079Y-79997478D01*
X153834806Y-79956555D01*
X153971738Y-79877498D01*
X154083542Y-79765694D01*
X154162599Y-79628762D01*
X154203522Y-79476035D01*
X154203522Y-70316390D01*
X154204452Y-70312740D01*
X154203522Y-70237410D01*
X154203522Y-70162045D01*
X154203521Y-70162043D01*
X154203457Y-70161554D01*
X154202403Y-70146898D01*
X154198498Y-69830553D01*
X154198499Y-69830538D01*
X154198316Y-69815723D01*
X154198317Y-69815722D01*
X154196365Y-69657619D01*
X154153559Y-69505409D01*
X154123473Y-69454753D01*
X154072818Y-69369464D01*
X153959642Y-69259049D01*
X153959641Y-69259048D01*
X153663103Y-68969743D01*
X153609818Y-68916458D01*
X153606554Y-68914573D01*
X153603858Y-68911943D01*
X153538815Y-68875453D01*
X153537487Y-68874697D01*
X153472889Y-68837403D01*
X153472890Y-68837403D01*
X153472886Y-68837401D01*
X153472880Y-68837399D01*
X153472416Y-68837207D01*
X153472393Y-68837197D01*
X153468673Y-68835655D01*
X153468671Y-68835654D01*
X153466973Y-68834951D01*
X153466436Y-68834772D01*
X153465959Y-68834581D01*
X153393620Y-68816150D01*
X153393620Y-68816151D01*
X153392821Y-68815947D01*
X153320159Y-68796478D01*
X153316397Y-68796478D01*
X153312743Y-68795547D01*
X153312740Y-68795547D01*
X153256184Y-68796245D01*
X153238061Y-68796469D01*
X153236531Y-68796478D01*
X111689692Y-68796478D01*
X111689676Y-68796477D01*
X111682080Y-68796477D01*
X111523965Y-68796477D01*
X111451229Y-68815967D01*
X111371236Y-68837401D01*
X111371231Y-68837404D01*
X111234312Y-68916453D01*
X111234304Y-68916459D01*
X110019481Y-70131282D01*
X110019479Y-70131285D01*
X109969361Y-70218094D01*
X109969359Y-70218096D01*
X109940425Y-70268209D01*
X109940424Y-70268210D01*
X109940423Y-70268215D01*
X109899499Y-70420943D01*
X105500500Y-70420943D01*
X105500500Y-65624500D01*
X105520185Y-65557461D01*
X105572989Y-65511706D01*
X105624500Y-65500500D01*
X159375500Y-65500500D01*
X159442539Y-65520185D01*
G37*
%TD.AperFunction*%
%TD*%
D23*
%TO.C,R1*%
X118825000Y-124000000D03*
X115425000Y-124000000D03*
%TD*%
D24*
%TO.C,U1*%
X138135000Y-81575000D03*
D25*
X140675000Y-81575000D03*
X143215000Y-81575000D03*
X145755000Y-81575000D03*
X145755000Y-73955000D03*
X143215000Y-73955000D03*
X140675000Y-73955000D03*
X138135000Y-73955000D03*
%TD*%
D26*
%TO.C,RV1*%
X144000000Y-102825000D03*
X146540000Y-102825000D03*
X149080000Y-102825000D03*
%TD*%
D25*
%TO.C,R3*%
X115000000Y-116265000D03*
X122620000Y-116265000D03*
%TD*%
%TO.C,R2*%
X123500000Y-124500000D03*
X131120000Y-124500000D03*
%TD*%
D27*
%TO.C,Q1*%
X115755000Y-109195000D03*
D28*
X117025000Y-109195000D03*
X118295000Y-109195000D03*
%TD*%
D29*
%TO.C,K1*%
X122500000Y-76970000D03*
D30*
X116500000Y-78970000D03*
X116500000Y-91170000D03*
X128500000Y-91170000D03*
X128500000Y-78970000D03*
%TD*%
D31*
%TO.C,J3*%
X152500000Y-126755000D03*
D32*
X147420000Y-126755000D03*
%TD*%
D33*
%TO.C,D2*%
X116420000Y-101895000D03*
D34*
X126580000Y-101895000D03*
%TD*%
D25*
%TO.C,C1*%
X135500000Y-124315000D03*
X140500000Y-124315000D03*
%TD*%
D10*
%TO.P,R1,2*%
%TO.N,Net-(U1A-+)*%
X118825000Y-124000000D03*
%TO.P,R1,1*%
%TO.N,+5V*%
X115425000Y-124000000D03*
%TD*%
D11*
%TO.P,U1,1*%
%TO.N,Net-(R3-Pad2)*%
X138135000Y-81575000D03*
D12*
%TO.P,U1,2,-_2*%
%TO.N,Net-(U1A--)*%
X140675000Y-81575000D03*
%TO.P,U1,3,+_3*%
%TO.N,Net-(U1A-+)*%
X143215000Y-81575000D03*
%TO.P,U1,4,V-_4*%
%TO.N,GND*%
X145755000Y-81575000D03*
%TO.P,U1,5*%
%TO.N,N/C*%
X145755000Y-73955000D03*
%TO.P,U1,6*%
X143215000Y-73955000D03*
%TO.P,U1,7*%
X140675000Y-73955000D03*
%TO.P,U1,8,V+_8*%
%TO.N,+5V*%
X138135000Y-73955000D03*
%TD*%
D13*
%TO.P,RV1,3,3_3*%
%TO.N,GND*%
X144000000Y-102825000D03*
%TO.P,RV1,2,2_2*%
%TO.N,Net-(U1A--)*%
X146540000Y-102825000D03*
%TO.P,RV1,1,1_1*%
%TO.N,+5V*%
X149080000Y-102825000D03*
%TD*%
D12*
%TO.P,R3,1*%
%TO.N,Net-(Q1-B)*%
X115000000Y-116265000D03*
%TO.P,R3,2*%
%TO.N,Net-(R3-Pad2)*%
X122620000Y-116265000D03*
%TD*%
%TO.P,R2,1*%
%TO.N,Net-(U1A-+)*%
X123500000Y-124500000D03*
%TO.P,R2,2*%
%TO.N,GND*%
X131120000Y-124500000D03*
%TD*%
D14*
%TO.P,Q1,1,C_1*%
%TO.N,Net-(D2-A)*%
X115755000Y-109195000D03*
D15*
%TO.P,Q1,2,B_2*%
%TO.N,Net-(Q1-B)*%
X117025000Y-109195000D03*
%TO.P,Q1,3,E_3*%
%TO.N,GND*%
X118295000Y-109195000D03*
%TD*%
D16*
%TO.P,K1,1*%
%TO.N,/AC_LIVE*%
X122500000Y-76970000D03*
D17*
%TO.P,K1,2*%
%TO.N,+5V*%
X116500000Y-78970000D03*
%TO.P,K1,3*%
%TO.N,unconnected-(K1-Pad3)*%
X116500000Y-91170000D03*
%TO.P,K1,4*%
%TO.N,Net-(J3-Pin_1)*%
X128500000Y-91170000D03*
%TO.P,K1,5*%
%TO.N,Net-(D2-A)*%
X128500000Y-78970000D03*
%TD*%
D18*
%TO.P,J3,2,Pin_2_2*%
%TO.N,/NEUTRAL*%
X152500000Y-126755000D03*
D19*
%TO.P,J3,1,Pin_1_1*%
%TO.N,Net-(J3-Pin_1)*%
X147420000Y-126755000D03*
%TD*%
D20*
%TO.P,D2,1,K_1*%
%TO.N,+5V*%
X116420000Y-101895000D03*
D21*
%TO.P,D2,2,A_2*%
%TO.N,Net-(D2-A)*%
X126580000Y-101895000D03*
%TD*%
D12*
%TO.P,C1,1*%
%TO.N,+5V*%
X135500000Y-124315000D03*
%TO.P,C1,2*%
%TO.N,GND*%
X140500000Y-124315000D03*
%TD*%
%TO.N,GND*%
D22*
X141675000Y-102825000D02*
X144000000Y-102825000D01*
X141500000Y-103000000D02*
X141675000Y-102825000D01*
X140500000Y-103000000D02*
X141500000Y-103000000D01*
X140500000Y-124315000D02*
X140500000Y-103000000D01*
X140500000Y-130500000D02*
X131000000Y-130500000D01*
X140500000Y-124315000D02*
X140500000Y-130500000D01*
X131120000Y-124500000D02*
X131120000Y-130380000D01*
X121500000Y-109500000D02*
X121500000Y-130500000D01*
X131000000Y-130500000D02*
X131120000Y-130380000D01*
X121500000Y-130500000D02*
X131000000Y-130500000D01*
X119195000Y-109195000D02*
X119500000Y-109500000D01*
X119500000Y-109500000D02*
X121500000Y-109500000D01*
X118295000Y-109195000D02*
X119195000Y-109195000D01*
X146807498Y-104000000D02*
X145175000Y-104000000D01*
X147560000Y-103247498D02*
X146807498Y-104000000D01*
X145175000Y-104000000D02*
X144000000Y-102825000D01*
X145755000Y-81575000D02*
X147560000Y-83380000D01*
X147560000Y-83380000D02*
X147560000Y-103247498D01*
%TO.N,Net-(U1A--)*%
X140675000Y-96960000D02*
X146540000Y-102825000D01*
X140675000Y-81575000D02*
X140675000Y-96960000D01*
%TO.N,Net-(R3-Pad2)*%
X135000000Y-117000000D02*
X134265000Y-116265000D01*
X134265000Y-116265000D02*
X122620000Y-116265000D01*
X138135000Y-113865000D02*
X135000000Y-117000000D01*
X138135000Y-81575000D02*
X138135000Y-113865000D01*
%TO.N,Net-(D2-A)*%
X126580000Y-85080000D02*
X126580000Y-101895000D01*
X128500000Y-83000000D02*
X126500000Y-85000000D01*
X126500000Y-85000000D02*
X126580000Y-85080000D01*
X128500000Y-78970000D02*
X128500000Y-83000000D01*
%TO.N,Net-(Q1-B)*%
X115000000Y-113500000D02*
X115000000Y-116265000D01*
X117000000Y-113500000D02*
X115000000Y-113500000D01*
X117000000Y-109220000D02*
X117000000Y-113500000D01*
X117025000Y-109195000D02*
X117000000Y-109220000D01*
%TO.N,Net-(D2-A)*%
X115755000Y-106245000D02*
X115755000Y-109195000D01*
X116500000Y-105500000D02*
X115755000Y-106245000D01*
X125500000Y-105500000D02*
X116500000Y-105500000D01*
X126580000Y-104420000D02*
X125500000Y-105500000D01*
X126580000Y-101895000D02*
X126580000Y-104420000D01*
%TO.N,+5V*%
X113500000Y-124000000D02*
X115425000Y-124000000D01*
X113100000Y-124400000D02*
X113500000Y-124000000D01*
X114000000Y-102000000D02*
X113100000Y-102000000D01*
X113100000Y-102000000D02*
X113100000Y-124400000D01*
X114105000Y-101895000D02*
X116420000Y-101895000D01*
X114000000Y-102000000D02*
X114105000Y-101895000D01*
X114000000Y-81470000D02*
X114000000Y-102000000D01*
X116500000Y-78970000D02*
X114000000Y-81470000D01*
X116500000Y-72000000D02*
X116500000Y-78970000D01*
X116000000Y-71500000D02*
X116500000Y-72000000D01*
X137500000Y-71500000D02*
X116000000Y-71500000D01*
X138000000Y-71000000D02*
X137500000Y-71500000D01*
X138135000Y-71135000D02*
X138000000Y-71000000D01*
X138135000Y-73955000D02*
X138135000Y-71135000D01*
%TD*%
%TA.AperFunction,Conductor*%
%TO.N,GND*%
G36*
X159442539Y-65520185D02*
G01*
X159488294Y-65572989D01*
X159499500Y-65624500D01*
X159499500Y-139375500D01*
X159479815Y-139442539D01*
X159427011Y-139488294D01*
X159375500Y-139499500D01*
X105624500Y-139499500D01*
X105557461Y-139479815D01*
X105511706Y-139427011D01*
X105500500Y-139375500D01*
X105500500Y-124479054D01*
X112499498Y-124479054D01*
X112499499Y-124479057D01*
X112537140Y-124619534D01*
X112540424Y-124631787D01*
X112554059Y-124655403D01*
X112554060Y-124655405D01*
X112619477Y-124768712D01*
X112619478Y-124768713D01*
X112619480Y-124768716D01*
X112731284Y-124880520D01*
X112811006Y-124926547D01*
X112868215Y-124959577D01*
X113020943Y-125000501D01*
X113020946Y-125000501D01*
X113179054Y-125000501D01*
X113179057Y-125000501D01*
X113331785Y-124959577D01*
X113388994Y-124926547D01*
X113468716Y-124880520D01*
X113580520Y-124768716D01*
X113580520Y-124768714D01*
X113590721Y-124758514D01*
X113590725Y-124758508D01*
X113712417Y-124636818D01*
X113773741Y-124603334D01*
X113800098Y-124600500D01*
X114252404Y-124600500D01*
X114319443Y-124620185D01*
X114352722Y-124651614D01*
X114355475Y-124655403D01*
X114355476Y-124655405D01*
X114471172Y-124814646D01*
X114610354Y-124953828D01*
X114769595Y-125069524D01*
X114852455Y-125111743D01*
X114944970Y-125158882D01*
X114944972Y-125158882D01*
X114944975Y-125158884D01*
X115045317Y-125191487D01*
X115132173Y-125219709D01*
X115326578Y-125250500D01*
X115326583Y-125250500D01*
X115523422Y-125250500D01*
X115717826Y-125219709D01*
X115905025Y-125158884D01*
X116080405Y-125069524D01*
X116239646Y-124953828D01*
X116378828Y-124814646D01*
X116494524Y-124655405D01*
X116583884Y-124480025D01*
X116644709Y-124292826D01*
X116655107Y-124227174D01*
X116675500Y-124098422D01*
X116675500Y-123901577D01*
X117574500Y-123901577D01*
X117574500Y-124098422D01*
X117605290Y-124292826D01*
X117666117Y-124480029D01*
X117753544Y-124651614D01*
X117755476Y-124655405D01*
X117871172Y-124814646D01*
X118010354Y-124953828D01*
X118169595Y-125069524D01*
X118252455Y-125111743D01*
X118344970Y-125158882D01*
X118344972Y-125158882D01*
X118344975Y-125158884D01*
X118445317Y-125191487D01*
X118532173Y-125219709D01*
X118726578Y-125250500D01*
X118726583Y-125250500D01*
X118923422Y-125250500D01*
X119117826Y-125219709D01*
X119305025Y-125158884D01*
X119480405Y-125069524D01*
X119639646Y-124953828D01*
X119778828Y-124814646D01*
X119894524Y-124655405D01*
X119983884Y-124480025D01*
X120010650Y-124397648D01*
X122199500Y-124397648D01*
X122199500Y-124602351D01*
X122231522Y-124804534D01*
X122294781Y-124999223D01*
X122330602Y-125069524D01*
X122387585Y-125181359D01*
X122387715Y-125181613D01*
X122508028Y-125347213D01*
X122652786Y-125491971D01*
X122778736Y-125583477D01*
X122818390Y-125612287D01*
X122902215Y-125654998D01*
X123000776Y-125705218D01*
X123000778Y-125705218D01*
X123000781Y-125705220D01*
X123105137Y-125739127D01*
X123195465Y-125768477D01*
X123296557Y-125784488D01*
X123397648Y-125800500D01*
X123397649Y-125800500D01*
X123602351Y-125800500D01*
X123602352Y-125800500D01*
X123804534Y-125768477D01*
X123999219Y-125705220D01*
X124181610Y-125612287D01*
X124289497Y-125533903D01*
X124347213Y-125491971D01*
X124347215Y-125491968D01*
X124347219Y-125491966D01*
X124491966Y-125347219D01*
X124491970Y-125347215D01*
X124491971Y-125347213D01*
X124555672Y-125259534D01*
X124612287Y-125181610D01*
X124705220Y-124999219D01*
X124768477Y-124804534D01*
X124800500Y-124602352D01*
X124800500Y-124397682D01*
X129820000Y-124397682D01*
X129820000Y-124602317D01*
X129852009Y-124804417D01*
X129915244Y-124999031D01*
X130008141Y-125181350D01*
X130008147Y-125181359D01*
X130040523Y-125225921D01*
X130040524Y-125225922D01*
X130720000Y-124546446D01*
X130720000Y-124552661D01*
X130747259Y-124654394D01*
X130799920Y-124745606D01*
X130874394Y-124820080D01*
X130965606Y-124872741D01*
X131067339Y-124900000D01*
X131073553Y-124900000D01*
X130394076Y-125579474D01*
X130438650Y-125611859D01*
X130620968Y-125704755D01*
X130815582Y-125767990D01*
X131017683Y-125800000D01*
X131222317Y-125800000D01*
X131424417Y-125767990D01*
X131619031Y-125704755D01*
X131716714Y-125654983D01*
X145619500Y-125654983D01*
X145619500Y-127855001D01*
X145619501Y-127855018D01*
X145630000Y-127957796D01*
X145630001Y-127957799D01*
X145680962Y-128111587D01*
X145685186Y-128124334D01*
X145777288Y-128273656D01*
X145901344Y-128397712D01*
X146050666Y-128489814D01*
X146217203Y-128544999D01*
X146319991Y-128555500D01*
X148520008Y-128555499D01*
X148622797Y-128544999D01*
X148789334Y-128489814D01*
X148938656Y-128397712D01*
X149062712Y-128273656D01*
X149154814Y-128124334D01*
X149209999Y-127957797D01*
X149220500Y-127855009D01*
X149220499Y-126636995D01*
X150699500Y-126636995D01*
X150699500Y-126873004D01*
X150699501Y-126873020D01*
X150730306Y-127107010D01*
X150791394Y-127334993D01*
X150881714Y-127553045D01*
X150881719Y-127553056D01*
X150952677Y-127675957D01*
X150999727Y-127757450D01*
X150999729Y-127757453D01*
X150999730Y-127757454D01*
X151143406Y-127944697D01*
X151143412Y-127944704D01*
X151310295Y-128111587D01*
X151310302Y-128111593D01*
X151326909Y-128124336D01*
X151497550Y-128255273D01*
X151628918Y-128331118D01*
X151701943Y-128373280D01*
X151701948Y-128373282D01*
X151701951Y-128373284D01*
X151920007Y-128463606D01*
X152147986Y-128524693D01*
X152381989Y-128555500D01*
X152381996Y-128555500D01*
X152618004Y-128555500D01*
X152618011Y-128555500D01*
X152852014Y-128524693D01*
X153079993Y-128463606D01*
X153298049Y-128373284D01*
X153502450Y-128255273D01*
X153689699Y-128111592D01*
X153856592Y-127944699D01*
X154000273Y-127757450D01*
X154118284Y-127553049D01*
X154208606Y-127334993D01*
X154269693Y-127107014D01*
X154300500Y-126873011D01*
X154300500Y-126636989D01*
X154269693Y-126402986D01*
X154208606Y-126175007D01*
X154118284Y-125956951D01*
X154118282Y-125956948D01*
X154118280Y-125956943D01*
X154076118Y-125883918D01*
X154000273Y-125752550D01*
X153870165Y-125582990D01*
X153856593Y-125565302D01*
X153856587Y-125565295D01*
X153689704Y-125398412D01*
X153689697Y-125398406D01*
X153502454Y-125254730D01*
X153502453Y-125254729D01*
X153502450Y-125254727D01*
X153420957Y-125207677D01*
X153298056Y-125136719D01*
X153298045Y-125136714D01*
X153079993Y-125046394D01*
X152982180Y-125020185D01*
X152852014Y-124985307D01*
X152852013Y-124985306D01*
X152852010Y-124985306D01*
X152618020Y-124954501D01*
X152618017Y-124954500D01*
X152618011Y-124954500D01*
X152381989Y-124954500D01*
X152381983Y-124954500D01*
X152381979Y-124954501D01*
X152147989Y-124985306D01*
X151920006Y-125046394D01*
X151701954Y-125136714D01*
X151701943Y-125136719D01*
X151497545Y-125254730D01*
X151310302Y-125398406D01*
X151310295Y-125398412D01*
X151143412Y-125565295D01*
X151143406Y-125565302D01*
X150999730Y-125752545D01*
X150881719Y-125956943D01*
X150881714Y-125956954D01*
X150791394Y-126175006D01*
X150730306Y-126402989D01*
X150699501Y-126636979D01*
X150699500Y-126636995D01*
X149220499Y-126636995D01*
X149220499Y-125654992D01*
X149209999Y-125552203D01*
X149154814Y-125385666D01*
X149062712Y-125236344D01*
X148938656Y-125112288D01*
X148789334Y-125020186D01*
X148622797Y-124965001D01*
X148622795Y-124965000D01*
X148520010Y-124954500D01*
X146319998Y-124954500D01*
X146319981Y-124954501D01*
X146217203Y-124965000D01*
X146217200Y-124965001D01*
X146050668Y-125020185D01*
X146050663Y-125020187D01*
X145901342Y-125112289D01*
X145777289Y-125236342D01*
X145685187Y-125385663D01*
X145685185Y-125385668D01*
X145680962Y-125398412D01*
X145630001Y-125552203D01*
X145630001Y-125552204D01*
X145630000Y-125552204D01*
X145619500Y-125654983D01*
X131716714Y-125654983D01*
X131801349Y-125611859D01*
X131845921Y-125579474D01*
X131166447Y-124900000D01*
X131172661Y-124900000D01*
X131274394Y-124872741D01*
X131365606Y-124820080D01*
X131440080Y-124745606D01*
X131492741Y-124654394D01*
X131520000Y-124552661D01*
X131520000Y-124546447D01*
X132199474Y-125225921D01*
X132231859Y-125181349D01*
X132324755Y-124999031D01*
X132387990Y-124804417D01*
X132420000Y-124602317D01*
X132420000Y-124397682D01*
X132392994Y-124227174D01*
X132390693Y-124212648D01*
X134199500Y-124212648D01*
X134199500Y-124417351D01*
X134231522Y-124619534D01*
X134294781Y-124814223D01*
X134352013Y-124926545D01*
X134387585Y-124996359D01*
X134387715Y-124996613D01*
X134508028Y-125162213D01*
X134652786Y-125306971D01*
X134807749Y-125419556D01*
X134818390Y-125427287D01*
X134934607Y-125486503D01*
X135000776Y-125520218D01*
X135000778Y-125520218D01*
X135000781Y-125520220D01*
X135099205Y-125552200D01*
X135195465Y-125583477D01*
X135296557Y-125599488D01*
X135397648Y-125615500D01*
X135397649Y-125615500D01*
X135602351Y-125615500D01*
X135602352Y-125615500D01*
X135804534Y-125583477D01*
X135999219Y-125520220D01*
X136181610Y-125427287D01*
X136291821Y-125347215D01*
X136347213Y-125306971D01*
X136347215Y-125306968D01*
X136347219Y-125306966D01*
X136491966Y-125162219D01*
X136491968Y-125162215D01*
X136491971Y-125162213D01*
X136576117Y-125046394D01*
X136612287Y-124996610D01*
X136705220Y-124814219D01*
X136768477Y-124619534D01*
X136800500Y-124417352D01*
X136800500Y-124212682D01*
X139200000Y-124212682D01*
X139200000Y-124417317D01*
X139232009Y-124619417D01*
X139295244Y-124814031D01*
X139388141Y-124996350D01*
X139388147Y-124996359D01*
X139420523Y-125040921D01*
X139420524Y-125040922D01*
X140100000Y-124361446D01*
X140100000Y-124367661D01*
X140127259Y-124469394D01*
X140179920Y-124560606D01*
X140254394Y-124635080D01*
X140345606Y-124687741D01*
X140447339Y-124715000D01*
X140453553Y-124715000D01*
X139774076Y-125394474D01*
X139818650Y-125426859D01*
X140000968Y-125519755D01*
X140195582Y-125582990D01*
X140397683Y-125615000D01*
X140602317Y-125615000D01*
X140804417Y-125582990D01*
X140955489Y-125533903D01*
X140999031Y-125519755D01*
X141181349Y-125426859D01*
X141225921Y-125394474D01*
X140546447Y-124715000D01*
X140552661Y-124715000D01*
X140654394Y-124687741D01*
X140745606Y-124635080D01*
X140820080Y-124560606D01*
X140872741Y-124469394D01*
X140900000Y-124367661D01*
X140900000Y-124361447D01*
X141579474Y-125040921D01*
X141611859Y-124996349D01*
X141704755Y-124814031D01*
X141767990Y-124619417D01*
X141800000Y-124417317D01*
X141800000Y-124212682D01*
X141767990Y-124010582D01*
X141704755Y-123815968D01*
X141611859Y-123633650D01*
X141579474Y-123589077D01*
X141579474Y-123589076D01*
X140900000Y-124268551D01*
X140900000Y-124262339D01*
X140872741Y-124160606D01*
X140820080Y-124069394D01*
X140745606Y-123994920D01*
X140654394Y-123942259D01*
X140552661Y-123915000D01*
X140546446Y-123915000D01*
X141225922Y-123235524D01*
X141225921Y-123235523D01*
X141181359Y-123203147D01*
X141181350Y-123203141D01*
X140999031Y-123110244D01*
X140804417Y-123047009D01*
X140602317Y-123015000D01*
X140397683Y-123015000D01*
X140195582Y-123047009D01*
X140000968Y-123110244D01*
X139818644Y-123203143D01*
X139774077Y-123235523D01*
X139774077Y-123235524D01*
X140453554Y-123915000D01*
X140447339Y-123915000D01*
X140345606Y-123942259D01*
X140254394Y-123994920D01*
X140179920Y-124069394D01*
X140127259Y-124160606D01*
X140100000Y-124262339D01*
X140100000Y-124268553D01*
X139420524Y-123589077D01*
X139420523Y-123589077D01*
X139388143Y-123633644D01*
X139295244Y-123815968D01*
X139232009Y-124010582D01*
X139200000Y-124212682D01*
X136800500Y-124212682D01*
X136800500Y-124212648D01*
X136792257Y-124160606D01*
X136768477Y-124010465D01*
X136706150Y-123818644D01*
X136705220Y-123815781D01*
X136705218Y-123815778D01*
X136705218Y-123815776D01*
X136649881Y-123707173D01*
X136612287Y-123633390D01*
X136529887Y-123519975D01*
X136491969Y-123467784D01*
X136347213Y-123323028D01*
X136181613Y-123202715D01*
X136181612Y-123202714D01*
X136181610Y-123202713D01*
X136124653Y-123173691D01*
X135999223Y-123109781D01*
X135804534Y-123046522D01*
X135629995Y-123018878D01*
X135602352Y-123014500D01*
X135397648Y-123014500D01*
X135373329Y-123018351D01*
X135195465Y-123046522D01*
X135000776Y-123109781D01*
X134818386Y-123202715D01*
X134652786Y-123323028D01*
X134508032Y-123467782D01*
X134508031Y-123467784D01*
X134387715Y-123633386D01*
X134294781Y-123815776D01*
X134231522Y-124010465D01*
X134199500Y-124212648D01*
X132390693Y-124212648D01*
X132387989Y-124195581D01*
X132324755Y-124000968D01*
X132231859Y-123818650D01*
X132199474Y-123774077D01*
X132199474Y-123774076D01*
X131520000Y-124453551D01*
X131520000Y-124447339D01*
X131492741Y-124345606D01*
X131440080Y-124254394D01*
X131365606Y-124179920D01*
X131274394Y-124127259D01*
X131172661Y-124100000D01*
X131166446Y-124100000D01*
X131845922Y-123420524D01*
X131845921Y-123420523D01*
X131801359Y-123388147D01*
X131801350Y-123388141D01*
X131619031Y-123295244D01*
X131424417Y-123232009D01*
X131222317Y-123200000D01*
X131017683Y-123200000D01*
X130815582Y-123232009D01*
X130620968Y-123295244D01*
X130438644Y-123388143D01*
X130394077Y-123420523D01*
X130394077Y-123420524D01*
X131073554Y-124100000D01*
X131067339Y-124100000D01*
X130965606Y-124127259D01*
X130874394Y-124179920D01*
X130799920Y-124254394D01*
X130747259Y-124345606D01*
X130720000Y-124447339D01*
X130720000Y-124453553D01*
X130040524Y-123774077D01*
X130040523Y-123774077D01*
X130008143Y-123818644D01*
X129915244Y-124000968D01*
X129852009Y-124195582D01*
X129820000Y-124397682D01*
X124800500Y-124397682D01*
X124800500Y-124397648D01*
X124787410Y-124315000D01*
X124768477Y-124195465D01*
X124727514Y-124069394D01*
X124705220Y-124000781D01*
X124705218Y-124000778D01*
X124705218Y-124000776D01*
X124612419Y-123818650D01*
X124612287Y-123818390D01*
X124580092Y-123774077D01*
X124491971Y-123652786D01*
X124347213Y-123508028D01*
X124181613Y-123387715D01*
X124181612Y-123387714D01*
X124181610Y-123387713D01*
X124104427Y-123348386D01*
X123999223Y-123294781D01*
X123804534Y-123231522D01*
X123625378Y-123203147D01*
X123602352Y-123199500D01*
X123397648Y-123199500D01*
X123377362Y-123202713D01*
X123195465Y-123231522D01*
X123000776Y-123294781D01*
X122818386Y-123387715D01*
X122652786Y-123508028D01*
X122508028Y-123652786D01*
X122387715Y-123818386D01*
X122294781Y-124000776D01*
X122231522Y-124195465D01*
X122199500Y-124397648D01*
X120010650Y-124397648D01*
X120014154Y-124386863D01*
X120024684Y-124354457D01*
X120024684Y-124354456D01*
X120044708Y-124292830D01*
X120044708Y-124292829D01*
X120044709Y-124292826D01*
X120062591Y-124179920D01*
X120075500Y-124098422D01*
X120075500Y-123901577D01*
X120044709Y-123707173D01*
X119983882Y-123519970D01*
X119936743Y-123427455D01*
X119894524Y-123344595D01*
X119778828Y-123185354D01*
X119639646Y-123046172D01*
X119480405Y-122930476D01*
X119305029Y-122841117D01*
X119117826Y-122780290D01*
X118923422Y-122749500D01*
X118923417Y-122749500D01*
X118726583Y-122749500D01*
X118726578Y-122749500D01*
X118532173Y-122780290D01*
X118344970Y-122841117D01*
X118169594Y-122930476D01*
X118078741Y-122996485D01*
X118010354Y-123046172D01*
X118010352Y-123046174D01*
X118010351Y-123046174D01*
X117871174Y-123185351D01*
X117871174Y-123185352D01*
X117871172Y-123185354D01*
X117858245Y-123203147D01*
X117755476Y-123344594D01*
X117666117Y-123519970D01*
X117605290Y-123707173D01*
X117574500Y-123901577D01*
X116675500Y-123901577D01*
X116644709Y-123707173D01*
X116583882Y-123519970D01*
X116536743Y-123427455D01*
X116494524Y-123344595D01*
X116378828Y-123185354D01*
X116239646Y-123046172D01*
X116080405Y-122930476D01*
X115905029Y-122841117D01*
X115717826Y-122780290D01*
X115523422Y-122749500D01*
X115523417Y-122749500D01*
X115326583Y-122749500D01*
X115326578Y-122749500D01*
X115132173Y-122780290D01*
X114944970Y-122841117D01*
X114769594Y-122930476D01*
X114678741Y-122996485D01*
X114610354Y-123046172D01*
X114610352Y-123046174D01*
X114610351Y-123046174D01*
X114471174Y-123185351D01*
X114471174Y-123185352D01*
X114471172Y-123185354D01*
X114371141Y-123323034D01*
X114352722Y-123348386D01*
X114297392Y-123391051D01*
X114252404Y-123399500D01*
X113824500Y-123399500D01*
X113757461Y-123379815D01*
X113711706Y-123327011D01*
X113700500Y-123275500D01*
X113700500Y-117070567D01*
X113720185Y-117003528D01*
X113772989Y-116957773D01*
X113842147Y-116947829D01*
X113905703Y-116976854D01*
X113924819Y-116997682D01*
X114008034Y-117112219D01*
X114152786Y-117256971D01*
X114306593Y-117368716D01*
X114318390Y-117377287D01*
X114434607Y-117436503D01*
X114500776Y-117470218D01*
X114500778Y-117470218D01*
X114500781Y-117470220D01*
X114605137Y-117504127D01*
X114695465Y-117533477D01*
X114796557Y-117549488D01*
X114897648Y-117565500D01*
X114897649Y-117565500D01*
X115102351Y-117565500D01*
X115102352Y-117565500D01*
X115304534Y-117533477D01*
X115499219Y-117470220D01*
X115681610Y-117377287D01*
X115774590Y-117309732D01*
X115847213Y-117256971D01*
X115847215Y-117256968D01*
X115847219Y-117256966D01*
X115991966Y-117112219D01*
X115991968Y-117112215D01*
X115991971Y-117112213D01*
X116075181Y-116997682D01*
X116112287Y-116946610D01*
X116205220Y-116764219D01*
X116268477Y-116569534D01*
X116300500Y-116367352D01*
X116300500Y-116162648D01*
X121319500Y-116162648D01*
X121319500Y-116367351D01*
X121351522Y-116569534D01*
X121414781Y-116764223D01*
X121507715Y-116946613D01*
X121628028Y-117112213D01*
X121772786Y-117256971D01*
X121926593Y-117368716D01*
X121938390Y-117377287D01*
X122054607Y-117436503D01*
X122120776Y-117470218D01*
X122120778Y-117470218D01*
X122120781Y-117470220D01*
X122225137Y-117504127D01*
X122315465Y-117533477D01*
X122416557Y-117549488D01*
X122517648Y-117565500D01*
X122517649Y-117565500D01*
X122722351Y-117565500D01*
X122722352Y-117565500D01*
X122924534Y-117533477D01*
X123119219Y-117470220D01*
X123301610Y-117377287D01*
X123394590Y-117309732D01*
X123467213Y-117256971D01*
X123467215Y-117256968D01*
X123467219Y-117256966D01*
X123611966Y-117112219D01*
X123611968Y-117112215D01*
X123611971Y-117112213D01*
X123732284Y-116946614D01*
X123732285Y-116946613D01*
X123732287Y-116946610D01*
X123739117Y-116933204D01*
X123787091Y-116882409D01*
X123849602Y-116865500D01*
X133964903Y-116865500D01*
X134031942Y-116885185D01*
X134052584Y-116901819D01*
X134519481Y-117368716D01*
X134631284Y-117480519D01*
X134768215Y-117559577D01*
X134920943Y-117600501D01*
X134920946Y-117600501D01*
X135079054Y-117600501D01*
X135079057Y-117600501D01*
X135231785Y-117559577D01*
X135368716Y-117480519D01*
X138615520Y-114233716D01*
X138694577Y-114096784D01*
X138735501Y-113944057D01*
X138735501Y-113785942D01*
X138735501Y-113778347D01*
X138735500Y-113778329D01*
X138735500Y-82987162D01*
X138755185Y-82920123D01*
X138807989Y-82874368D01*
X138833552Y-82865907D01*
X138837788Y-82864999D01*
X138837797Y-82864999D01*
X139004334Y-82809814D01*
X139153656Y-82717712D01*
X139277712Y-82593656D01*
X139369814Y-82444334D01*
X139396955Y-82362427D01*
X139436726Y-82304984D01*
X139501242Y-82278161D01*
X139570018Y-82290476D01*
X139614977Y-82328547D01*
X139683034Y-82422219D01*
X139827781Y-82566966D01*
X139993390Y-82687287D01*
X140006793Y-82694116D01*
X140057589Y-82742088D01*
X140074500Y-82804601D01*
X140074500Y-96873330D01*
X140074499Y-96873348D01*
X140074499Y-97039054D01*
X140074498Y-97039054D01*
X140115423Y-97191785D01*
X140144358Y-97241900D01*
X140144359Y-97241904D01*
X140144360Y-97241904D01*
X140194479Y-97328714D01*
X140194481Y-97328717D01*
X140313349Y-97447585D01*
X140313355Y-97447590D01*
X144271434Y-101405670D01*
X144304919Y-101466993D01*
X144299935Y-101536685D01*
X144258063Y-101592618D01*
X144192599Y-101617035D01*
X144164355Y-101615824D01*
X144096015Y-101605000D01*
X143903985Y-101605000D01*
X143714315Y-101635040D01*
X143531678Y-101694383D01*
X143360578Y-101781564D01*
X143331352Y-101802798D01*
X143331351Y-101802798D01*
X143953554Y-102425000D01*
X143947339Y-102425000D01*
X143845606Y-102452259D01*
X143754394Y-102504920D01*
X143679920Y-102579394D01*
X143627259Y-102670606D01*
X143600000Y-102772339D01*
X143600000Y-102778553D01*
X142977798Y-102156351D01*
X142977798Y-102156352D01*
X142956564Y-102185578D01*
X142869383Y-102356678D01*
X142810040Y-102539315D01*
X142780000Y-102728984D01*
X142780000Y-102921015D01*
X142810040Y-103110684D01*
X142869383Y-103293321D01*
X142956561Y-103464415D01*
X142977798Y-103493646D01*
X143600000Y-102871445D01*
X143600000Y-102877661D01*
X143627259Y-102979394D01*
X143679920Y-103070606D01*
X143754394Y-103145080D01*
X143845606Y-103197741D01*
X143947339Y-103225000D01*
X143953554Y-103225000D01*
X143331351Y-103847200D01*
X143331352Y-103847201D01*
X143360577Y-103868434D01*
X143531678Y-103955616D01*
X143714315Y-104014959D01*
X143903985Y-104045000D01*
X144096015Y-104045000D01*
X144285684Y-104014959D01*
X144468321Y-103955616D01*
X144639419Y-103868436D01*
X144668646Y-103847201D01*
X144668646Y-103847200D01*
X144046447Y-103225000D01*
X144052661Y-103225000D01*
X144154394Y-103197741D01*
X144245606Y-103145080D01*
X144320080Y-103070606D01*
X144372741Y-102979394D01*
X144400000Y-102877661D01*
X144400000Y-102871446D01*
X145022200Y-103493646D01*
X145022201Y-103493646D01*
X145043436Y-103464419D01*
X145130616Y-103293319D01*
X145151805Y-103228108D01*
X145191242Y-103170433D01*
X145255600Y-103143234D01*
X145324447Y-103155148D01*
X145375923Y-103202392D01*
X145387667Y-103228108D01*
X145408916Y-103293505D01*
X145408917Y-103293506D01*
X145408918Y-103293509D01*
X145496135Y-103464681D01*
X145609055Y-103620102D01*
X145744898Y-103755945D01*
X145900319Y-103868865D01*
X146070576Y-103955616D01*
X146071493Y-103956083D01*
X146162845Y-103985764D01*
X146254199Y-104015447D01*
X146443945Y-104045500D01*
X146443946Y-104045500D01*
X146636054Y-104045500D01*
X146636055Y-104045500D01*
X146825801Y-104015447D01*
X147008509Y-103956082D01*
X147179681Y-103868865D01*
X147335102Y-103755945D01*
X147470945Y-103620102D01*
X147583865Y-103464681D01*
X147671082Y-103293509D01*
X147671144Y-103293319D01*
X147692069Y-103228919D01*
X147731506Y-103171243D01*
X147795864Y-103144044D01*
X147864711Y-103155958D01*
X147916187Y-103203202D01*
X147927931Y-103228919D01*
X147948915Y-103293504D01*
X147978117Y-103350815D01*
X148036135Y-103464681D01*
X148149055Y-103620102D01*
X148284898Y-103755945D01*
X148440319Y-103868865D01*
X148610576Y-103955616D01*
X148611493Y-103956083D01*
X148702845Y-103985764D01*
X148794199Y-104015447D01*
X148983945Y-104045500D01*
X148983946Y-104045500D01*
X149176054Y-104045500D01*
X149176055Y-104045500D01*
X149365801Y-104015447D01*
X149548509Y-103956082D01*
X149719681Y-103868865D01*
X149875102Y-103755945D01*
X150010945Y-103620102D01*
X150123865Y-103464681D01*
X150211082Y-103293509D01*
X150270447Y-103110801D01*
X150300500Y-102921055D01*
X150300500Y-102728945D01*
X150270447Y-102539199D01*
X150233342Y-102425000D01*
X150211083Y-102356493D01*
X150166903Y-102269785D01*
X150123865Y-102185319D01*
X150010945Y-102029898D01*
X149875102Y-101894055D01*
X149719681Y-101781135D01*
X149548506Y-101693916D01*
X149365802Y-101634553D01*
X149247551Y-101615824D01*
X149176055Y-101604500D01*
X148983945Y-101604500D01*
X148920696Y-101614517D01*
X148794197Y-101634553D01*
X148611493Y-101693916D01*
X148440318Y-101781135D01*
X148410502Y-101802798D01*
X148284898Y-101894055D01*
X148284896Y-101894057D01*
X148284895Y-101894057D01*
X148149057Y-102029895D01*
X148149057Y-102029896D01*
X148149055Y-102029898D01*
X148100560Y-102096645D01*
X148036135Y-102185318D01*
X147948916Y-102356493D01*
X147927931Y-102421081D01*
X147888494Y-102478756D01*
X147824135Y-102505955D01*
X147755289Y-102494041D01*
X147703813Y-102446797D01*
X147692069Y-102421081D01*
X147671083Y-102356493D01*
X147626903Y-102269785D01*
X147583865Y-102185319D01*
X147470945Y-102029898D01*
X147335102Y-101894055D01*
X147179681Y-101781135D01*
X147008506Y-101693916D01*
X146825802Y-101634553D01*
X146707551Y-101615824D01*
X146636055Y-101604500D01*
X146443945Y-101604500D01*
X146400674Y-101611353D01*
X146268768Y-101632245D01*
X146199474Y-101623290D01*
X146161689Y-101597453D01*
X141311819Y-96747583D01*
X141278334Y-96686260D01*
X141275500Y-96659902D01*
X141275500Y-82804601D01*
X141295185Y-82737562D01*
X141343206Y-82694116D01*
X141356610Y-82687287D01*
X141522219Y-82566966D01*
X141666966Y-82422219D01*
X141666968Y-82422215D01*
X141666971Y-82422213D01*
X141787284Y-82256614D01*
X141787286Y-82256611D01*
X141787287Y-82256610D01*
X141834516Y-82163917D01*
X141882489Y-82113123D01*
X141950310Y-82096328D01*
X142016445Y-82118865D01*
X142055483Y-82163917D01*
X142061140Y-82175018D01*
X142102715Y-82256614D01*
X142223028Y-82422213D01*
X142367786Y-82566971D01*
X142488226Y-82654474D01*
X142533390Y-82687287D01*
X142614499Y-82728614D01*
X142715776Y-82780218D01*
X142715778Y-82780218D01*
X142715781Y-82780220D01*
X142790818Y-82804601D01*
X142910465Y-82843477D01*
X143011557Y-82859488D01*
X143112648Y-82875500D01*
X143112649Y-82875500D01*
X143317351Y-82875500D01*
X143317352Y-82875500D01*
X143519534Y-82843477D01*
X143714219Y-82780220D01*
X143896610Y-82687287D01*
X144025482Y-82593657D01*
X144062213Y-82566971D01*
X144062215Y-82566968D01*
X144062219Y-82566966D01*
X144206966Y-82422219D01*
X144206968Y-82422215D01*
X144206971Y-82422213D01*
X144311894Y-82277797D01*
X144327287Y-82256610D01*
X144374795Y-82163369D01*
X144422769Y-82112573D01*
X144490590Y-82095778D01*
X144556725Y-82118315D01*
X144595765Y-82163369D01*
X144643141Y-82256350D01*
X144643147Y-82256359D01*
X144675523Y-82300921D01*
X144675524Y-82300922D01*
X145355000Y-81621446D01*
X145355000Y-81627661D01*
X145382259Y-81729394D01*
X145434920Y-81820606D01*
X145509394Y-81895080D01*
X145600606Y-81947741D01*
X145702339Y-81975000D01*
X145708553Y-81975000D01*
X145029076Y-82654474D01*
X145073650Y-82686859D01*
X145255968Y-82779755D01*
X145450582Y-82842990D01*
X145652683Y-82875000D01*
X145857317Y-82875000D01*
X146059417Y-82842990D01*
X146254031Y-82779755D01*
X146436349Y-82686859D01*
X146480921Y-82654474D01*
X145801447Y-81975000D01*
X145807661Y-81975000D01*
X145909394Y-81947741D01*
X146000606Y-81895080D01*
X146075080Y-81820606D01*
X146127741Y-81729394D01*
X146155000Y-81627661D01*
X146155000Y-81621447D01*
X146834474Y-82300921D01*
X146866859Y-82256349D01*
X146959755Y-82074031D01*
X147022990Y-81879417D01*
X147055000Y-81677317D01*
X147055000Y-81472682D01*
X147022990Y-81270582D01*
X146959755Y-81075968D01*
X146866859Y-80893650D01*
X146834474Y-80849077D01*
X146834474Y-80849076D01*
X146155000Y-81528551D01*
X146155000Y-81522339D01*
X146127741Y-81420606D01*
X146075080Y-81329394D01*
X146000606Y-81254920D01*
X145909394Y-81202259D01*
X145807661Y-81175000D01*
X145801446Y-81175000D01*
X146480922Y-80495524D01*
X146480921Y-80495523D01*
X146436359Y-80463147D01*
X146436350Y-80463141D01*
X146254031Y-80370244D01*
X146059417Y-80307009D01*
X145857317Y-80275000D01*
X145652683Y-80275000D01*
X145450582Y-80307009D01*
X145255968Y-80370244D01*
X145073644Y-80463143D01*
X145029077Y-80495523D01*
X145029077Y-80495524D01*
X145708554Y-81175000D01*
X145702339Y-81175000D01*
X145600606Y-81202259D01*
X145509394Y-81254920D01*
X145434920Y-81329394D01*
X145382259Y-81420606D01*
X145355000Y-81522339D01*
X145355000Y-81528553D01*
X144675524Y-80849077D01*
X144675523Y-80849077D01*
X144643143Y-80893644D01*
X144595765Y-80986630D01*
X144547790Y-81037426D01*
X144479969Y-81054221D01*
X144413834Y-81031683D01*
X144374795Y-80986630D01*
X144327284Y-80893385D01*
X144206971Y-80727786D01*
X144062213Y-80583028D01*
X143896613Y-80462715D01*
X143896612Y-80462714D01*
X143896610Y-80462713D01*
X143829673Y-80428607D01*
X143714223Y-80369781D01*
X143519534Y-80306522D01*
X143344995Y-80278878D01*
X143317352Y-80274500D01*
X143112648Y-80274500D01*
X143088329Y-80278351D01*
X142910465Y-80306522D01*
X142715776Y-80369781D01*
X142533386Y-80462715D01*
X142367786Y-80583028D01*
X142223028Y-80727786D01*
X142102715Y-80893386D01*
X142055485Y-80986080D01*
X142007510Y-81036876D01*
X141939689Y-81053671D01*
X141873554Y-81031134D01*
X141834515Y-80986080D01*
X141787419Y-80893650D01*
X141787287Y-80893390D01*
X141755092Y-80849077D01*
X141666971Y-80727786D01*
X141522213Y-80583028D01*
X141356613Y-80462715D01*
X141356612Y-80462714D01*
X141356610Y-80462713D01*
X141289673Y-80428607D01*
X141174223Y-80369781D01*
X140979534Y-80306522D01*
X140804995Y-80278878D01*
X140777352Y-80274500D01*
X140572648Y-80274500D01*
X140548329Y-80278351D01*
X140370465Y-80306522D01*
X140175776Y-80369781D01*
X139993386Y-80462715D01*
X139827786Y-80583028D01*
X139683032Y-80727782D01*
X139683028Y-80727787D01*
X139614978Y-80821451D01*
X139559648Y-80864117D01*
X139490035Y-80870096D01*
X139428240Y-80837490D01*
X139396954Y-80787570D01*
X139377144Y-80727787D01*
X139369814Y-80705666D01*
X139277712Y-80556344D01*
X139153656Y-80432288D01*
X139004334Y-80340186D01*
X138837797Y-80285001D01*
X138837795Y-80285000D01*
X138735010Y-80274500D01*
X137534998Y-80274500D01*
X137534981Y-80274501D01*
X137432203Y-80285000D01*
X137432200Y-80285001D01*
X137265668Y-80340185D01*
X137265663Y-80340187D01*
X137116342Y-80432289D01*
X136992289Y-80556342D01*
X136900187Y-80705663D01*
X136900186Y-80705666D01*
X136845001Y-80872203D01*
X136845001Y-80872204D01*
X136845000Y-80872204D01*
X136834500Y-80974983D01*
X136834500Y-82175001D01*
X136834501Y-82175018D01*
X136845000Y-82277796D01*
X136845001Y-82277799D01*
X136861818Y-82328548D01*
X136900186Y-82444334D01*
X136992288Y-82593656D01*
X137116344Y-82717712D01*
X137265666Y-82809814D01*
X137432203Y-82864999D01*
X137432209Y-82864999D01*
X137436448Y-82865907D01*
X137497884Y-82899185D01*
X137531576Y-82960394D01*
X137534500Y-82987162D01*
X137534500Y-113564901D01*
X137514815Y-113631940D01*
X137498181Y-113652582D01*
X135087680Y-116063083D01*
X135079734Y-116067421D01*
X135074309Y-116074669D01*
X135049549Y-116083903D01*
X135026357Y-116096568D01*
X135017327Y-116095922D01*
X135008845Y-116099086D01*
X134983024Y-116093469D01*
X134956665Y-116091584D01*
X134947611Y-116085765D01*
X134940572Y-116084234D01*
X134912318Y-116063083D01*
X134752590Y-115903355D01*
X134752588Y-115903352D01*
X134633717Y-115784481D01*
X134633716Y-115784480D01*
X134546904Y-115734360D01*
X134546904Y-115734359D01*
X134546900Y-115734358D01*
X134496785Y-115705423D01*
X134344057Y-115664499D01*
X134185943Y-115664499D01*
X134178347Y-115664499D01*
X134178331Y-115664500D01*
X123849602Y-115664500D01*
X123782563Y-115644815D01*
X123739117Y-115596795D01*
X123732284Y-115583385D01*
X123611971Y-115417786D01*
X123467213Y-115273028D01*
X123301613Y-115152715D01*
X123301612Y-115152714D01*
X123301610Y-115152713D01*
X123244653Y-115123691D01*
X123119223Y-115059781D01*
X122924534Y-114996522D01*
X122749995Y-114968878D01*
X122722352Y-114964500D01*
X122517648Y-114964500D01*
X122493329Y-114968351D01*
X122315465Y-114996522D01*
X122120776Y-115059781D01*
X121938386Y-115152715D01*
X121772786Y-115273028D01*
X121628028Y-115417786D01*
X121507715Y-115583386D01*
X121414781Y-115765776D01*
X121351522Y-115960465D01*
X121319500Y-116162648D01*
X116300500Y-116162648D01*
X116290034Y-116096568D01*
X116268477Y-115960465D01*
X116211296Y-115784481D01*
X116205220Y-115765781D01*
X116205218Y-115765778D01*
X116205218Y-115765776D01*
X116171503Y-115699607D01*
X116112287Y-115583390D01*
X116075181Y-115532317D01*
X115991971Y-115417786D01*
X115847213Y-115273028D01*
X115681610Y-115152712D01*
X115668200Y-115145879D01*
X115617406Y-115097903D01*
X115600500Y-115035397D01*
X115600500Y-114224500D01*
X115620185Y-114157461D01*
X115672989Y-114111706D01*
X115724500Y-114100500D01*
X117079055Y-114100500D01*
X117079057Y-114100500D01*
X117231784Y-114059577D01*
X117368716Y-113980520D01*
X117480520Y-113868716D01*
X117559577Y-113731784D01*
X117600500Y-113579057D01*
X117600500Y-110420696D01*
X117620185Y-110353657D01*
X117672989Y-110307902D01*
X117742147Y-110297958D01*
X117793392Y-110317595D01*
X117809471Y-110328339D01*
X117809486Y-110328347D01*
X117996016Y-110405609D01*
X117996025Y-110405612D01*
X118045000Y-110415353D01*
X118045000Y-109560865D01*
X118045067Y-109556789D01*
X118045400Y-109546638D01*
X118050500Y-109521003D01*
X118050500Y-109480830D01*
X118064745Y-109495075D01*
X118150255Y-109544444D01*
X118245630Y-109570000D01*
X118344370Y-109570000D01*
X118439745Y-109544444D01*
X118525255Y-109495075D01*
X118545000Y-109475330D01*
X118545000Y-110415352D01*
X118593974Y-110405612D01*
X118593983Y-110405609D01*
X118780513Y-110328347D01*
X118780526Y-110328340D01*
X118948399Y-110216170D01*
X118948403Y-110216167D01*
X119091167Y-110073403D01*
X119091170Y-110073399D01*
X119203340Y-109905526D01*
X119203347Y-109905513D01*
X119280609Y-109718983D01*
X119280612Y-109718974D01*
X119319999Y-109520958D01*
X119320000Y-109520955D01*
X119320000Y-109445000D01*
X118575330Y-109445000D01*
X118595075Y-109425255D01*
X118644444Y-109339745D01*
X118670000Y-109244370D01*
X118670000Y-109145630D01*
X118644444Y-109050255D01*
X118595075Y-108964745D01*
X118575330Y-108945000D01*
X119320000Y-108945000D01*
X119320000Y-108869045D01*
X119319999Y-108869041D01*
X119280612Y-108671025D01*
X119280609Y-108671016D01*
X119203347Y-108484486D01*
X119203340Y-108484473D01*
X119091170Y-108316600D01*
X119091167Y-108316596D01*
X118948403Y-108173832D01*
X118948399Y-108173829D01*
X118780526Y-108061659D01*
X118780513Y-108061652D01*
X118593984Y-107984390D01*
X118593977Y-107984388D01*
X118545000Y-107974645D01*
X118545000Y-108914670D01*
X118525255Y-108894925D01*
X118439745Y-108845556D01*
X118344370Y-108820000D01*
X118245630Y-108820000D01*
X118150255Y-108845556D01*
X118064745Y-108894925D01*
X118050500Y-108909170D01*
X118050500Y-108868997D01*
X118047383Y-108853326D01*
X118045000Y-108829134D01*
X118045000Y-107974646D01*
X118044999Y-107974645D01*
X117996022Y-107984388D01*
X117996015Y-107984390D01*
X117809481Y-108061654D01*
X117809479Y-108061655D01*
X117729337Y-108115204D01*
X117662660Y-108136081D01*
X117595280Y-108117596D01*
X117591558Y-108115204D01*
X117510754Y-108061212D01*
X117324127Y-107983909D01*
X117324119Y-107983907D01*
X117126007Y-107944500D01*
X117126003Y-107944500D01*
X116923997Y-107944500D01*
X116923992Y-107944500D01*
X116725880Y-107983907D01*
X116725868Y-107983910D01*
X116645198Y-108017325D01*
X116575729Y-108024794D01*
X116549551Y-108017015D01*
X116535578Y-108011120D01*
X116522331Y-108001204D01*
X116433731Y-107968158D01*
X116431305Y-107967135D01*
X116406185Y-107946622D01*
X116380233Y-107927194D01*
X116379286Y-107924656D01*
X116377187Y-107922942D01*
X116367145Y-107892104D01*
X116355816Y-107861730D01*
X116355638Y-107856769D01*
X116355553Y-107856506D01*
X116355620Y-107856249D01*
X116355500Y-107852884D01*
X116355500Y-106545097D01*
X116375185Y-106478058D01*
X116391819Y-106457416D01*
X116712416Y-106136819D01*
X116773739Y-106103334D01*
X116800097Y-106100500D01*
X125413331Y-106100500D01*
X125413347Y-106100501D01*
X125420943Y-106100501D01*
X125579054Y-106100501D01*
X125579057Y-106100501D01*
X125731785Y-106059577D01*
X125812084Y-106013216D01*
X125812095Y-106013210D01*
X125868709Y-105980524D01*
X125868708Y-105980524D01*
X125868716Y-105980520D01*
X125980520Y-105868716D01*
X125980520Y-105868714D01*
X125990724Y-105858511D01*
X125990727Y-105858506D01*
X127060520Y-104788716D01*
X127139577Y-104651784D01*
X127180501Y-104499057D01*
X127180501Y-104340942D01*
X127180501Y-104333347D01*
X127180500Y-104333329D01*
X127180500Y-103461300D01*
X127200185Y-103394261D01*
X127248204Y-103350815D01*
X127418845Y-103263870D01*
X127622656Y-103115793D01*
X127800793Y-102937656D01*
X127904431Y-102795010D01*
X127948869Y-102733847D01*
X128063239Y-102509383D01*
X128063239Y-102509382D01*
X128063241Y-102509379D01*
X128141090Y-102269785D01*
X128180500Y-102020962D01*
X128180500Y-101769038D01*
X128141090Y-101520215D01*
X128063241Y-101280621D01*
X128063239Y-101280618D01*
X128063239Y-101280616D01*
X128021747Y-101199184D01*
X127948870Y-101056155D01*
X127904425Y-100994982D01*
X127800798Y-100852350D01*
X127800794Y-100852345D01*
X127622654Y-100674205D01*
X127622649Y-100674201D01*
X127418848Y-100526132D01*
X127418847Y-100526131D01*
X127418845Y-100526130D01*
X127349186Y-100490637D01*
X127248205Y-100439184D01*
X127197409Y-100391209D01*
X127180500Y-100328699D01*
X127180500Y-92615415D01*
X127200185Y-92548376D01*
X127252989Y-92502621D01*
X127322147Y-92492677D01*
X127379987Y-92517040D01*
X127525382Y-92628607D01*
X127525385Y-92628608D01*
X127525388Y-92628611D01*
X127724112Y-92743344D01*
X127724117Y-92743346D01*
X127724123Y-92743349D01*
X127815480Y-92781190D01*
X127936113Y-92831158D01*
X128157762Y-92890548D01*
X128385266Y-92920500D01*
X128385273Y-92920500D01*
X128614727Y-92920500D01*
X128614734Y-92920500D01*
X128842238Y-92890548D01*
X129063887Y-92831158D01*
X129275888Y-92743344D01*
X129474612Y-92628611D01*
X129656661Y-92488919D01*
X129656665Y-92488914D01*
X129656670Y-92488911D01*
X129818911Y-92326670D01*
X129818914Y-92326665D01*
X129818919Y-92326661D01*
X129958611Y-92144612D01*
X130073344Y-91945888D01*
X130161158Y-91733887D01*
X130220548Y-91512238D01*
X130250500Y-91284734D01*
X130250500Y-91055266D01*
X130220548Y-90827762D01*
X130161158Y-90606113D01*
X130073346Y-90394118D01*
X130073346Y-90394117D01*
X130073344Y-90394112D01*
X129958611Y-90195388D01*
X129958608Y-90195385D01*
X129958607Y-90195382D01*
X129818918Y-90013338D01*
X129818911Y-90013330D01*
X129656670Y-89851089D01*
X129656661Y-89851081D01*
X129474617Y-89711392D01*
X129275890Y-89596657D01*
X129275876Y-89596650D01*
X129063887Y-89508842D01*
X128842238Y-89449452D01*
X128804215Y-89444446D01*
X128614741Y-89419500D01*
X128614734Y-89419500D01*
X128385266Y-89419500D01*
X128385258Y-89419500D01*
X128168715Y-89448009D01*
X128157762Y-89449452D01*
X128064076Y-89474554D01*
X127936112Y-89508842D01*
X127724123Y-89596650D01*
X127724109Y-89596657D01*
X127525387Y-89711389D01*
X127379987Y-89822960D01*
X127314817Y-89848154D01*
X127246373Y-89834116D01*
X127196383Y-89785302D01*
X127180500Y-89724584D01*
X127180500Y-85220096D01*
X127200185Y-85153057D01*
X127216814Y-85132420D01*
X128868713Y-83480521D01*
X128868716Y-83480520D01*
X128980520Y-83368716D01*
X129030639Y-83281904D01*
X129059577Y-83231785D01*
X129100500Y-83079057D01*
X129100500Y-82920943D01*
X129100500Y-80698846D01*
X129120185Y-80631807D01*
X129172989Y-80586052D01*
X129177048Y-80584285D01*
X129275876Y-80543349D01*
X129275876Y-80543348D01*
X129275888Y-80543344D01*
X129474612Y-80428611D01*
X129656661Y-80288919D01*
X129656665Y-80288914D01*
X129656670Y-80288911D01*
X129818911Y-80126670D01*
X129818914Y-80126665D01*
X129818919Y-80126661D01*
X129958611Y-79944612D01*
X130073344Y-79745888D01*
X130161158Y-79533887D01*
X130220548Y-79312238D01*
X130250500Y-79084734D01*
X130250500Y-78855266D01*
X130220548Y-78627762D01*
X130161158Y-78406113D01*
X130073344Y-78194112D01*
X129958611Y-77995388D01*
X129958608Y-77995385D01*
X129958607Y-77995382D01*
X129818918Y-77813338D01*
X129818911Y-77813330D01*
X129656670Y-77651089D01*
X129656661Y-77651081D01*
X129474617Y-77511392D01*
X129275890Y-77396657D01*
X129275876Y-77396650D01*
X129063887Y-77308842D01*
X129061461Y-77308192D01*
X128842238Y-77249452D01*
X128804215Y-77244446D01*
X128614741Y-77219500D01*
X128614734Y-77219500D01*
X128385266Y-77219500D01*
X128385258Y-77219500D01*
X128168715Y-77248009D01*
X128157762Y-77249452D01*
X128064076Y-77274554D01*
X127936112Y-77308842D01*
X127724123Y-77396650D01*
X127724109Y-77396657D01*
X127525382Y-77511392D01*
X127343338Y-77651081D01*
X127181081Y-77813338D01*
X127041392Y-77995382D01*
X126926657Y-78194109D01*
X126926650Y-78194123D01*
X126838842Y-78406112D01*
X126779453Y-78627759D01*
X126779451Y-78627770D01*
X126749500Y-78855258D01*
X126749500Y-79084741D01*
X126774446Y-79274215D01*
X126779452Y-79312238D01*
X126779453Y-79312240D01*
X126838842Y-79533887D01*
X126926650Y-79745876D01*
X126926657Y-79745890D01*
X127041392Y-79944617D01*
X127181081Y-80126661D01*
X127181089Y-80126670D01*
X127343330Y-80288911D01*
X127343338Y-80288918D01*
X127525382Y-80428607D01*
X127525385Y-80428608D01*
X127525388Y-80428611D01*
X127724112Y-80543344D01*
X127724117Y-80543346D01*
X127724123Y-80543349D01*
X127822952Y-80584285D01*
X127877356Y-80628125D01*
X127899421Y-80694420D01*
X127899500Y-80698846D01*
X127899500Y-82699903D01*
X127879815Y-82766942D01*
X127863181Y-82787584D01*
X126019483Y-84631281D01*
X126019481Y-84631284D01*
X125940423Y-84768214D01*
X125940423Y-84768215D01*
X125899499Y-84920943D01*
X125899499Y-84920945D01*
X125899499Y-85079054D01*
X125899498Y-85079054D01*
X125899499Y-85079057D01*
X125940423Y-85231785D01*
X125962887Y-85270693D01*
X125979500Y-85332693D01*
X125979500Y-100328699D01*
X125959815Y-100395738D01*
X125911795Y-100439184D01*
X125741151Y-100526132D01*
X125537350Y-100674201D01*
X125537345Y-100674205D01*
X125359205Y-100852345D01*
X125359201Y-100852350D01*
X125211132Y-101056151D01*
X125096760Y-101280616D01*
X125018910Y-101520214D01*
X124979500Y-101769038D01*
X124979500Y-102020961D01*
X125018910Y-102269785D01*
X125096760Y-102509383D01*
X125211131Y-102733847D01*
X125359201Y-102937649D01*
X125359205Y-102937654D01*
X125537345Y-103115794D01*
X125537350Y-103115798D01*
X125687655Y-103225000D01*
X125741155Y-103263870D01*
X125911795Y-103350815D01*
X125962591Y-103398789D01*
X125979500Y-103461300D01*
X125979500Y-104119902D01*
X125959815Y-104186941D01*
X125943181Y-104207583D01*
X125287584Y-104863181D01*
X125226261Y-104896666D01*
X125199903Y-104899500D01*
X116579057Y-104899500D01*
X116420943Y-104899500D01*
X116268215Y-104940423D01*
X116268214Y-104940423D01*
X116268212Y-104940424D01*
X116268209Y-104940425D01*
X116218096Y-104969359D01*
X116218095Y-104969360D01*
X116174689Y-104994420D01*
X116131285Y-105019479D01*
X116131282Y-105019481D01*
X115274481Y-105876282D01*
X115274479Y-105876285D01*
X115224361Y-105963094D01*
X115224359Y-105963096D01*
X115195425Y-106013209D01*
X115195424Y-106013210D01*
X115195422Y-106013217D01*
X115154499Y-106165943D01*
X115154499Y-106165945D01*
X115154499Y-106334046D01*
X115154500Y-106334059D01*
X115154500Y-107852884D01*
X115134815Y-107919923D01*
X115082011Y-107965678D01*
X115073834Y-107969066D01*
X114987669Y-108001203D01*
X114987664Y-108001206D01*
X114872455Y-108087452D01*
X114872452Y-108087455D01*
X114786206Y-108202664D01*
X114786202Y-108202671D01*
X114735908Y-108337517D01*
X114729501Y-108397116D01*
X114729500Y-108397135D01*
X114729500Y-109992870D01*
X114729501Y-109992876D01*
X114735908Y-110052483D01*
X114786202Y-110187328D01*
X114786206Y-110187335D01*
X114872452Y-110302544D01*
X114872455Y-110302547D01*
X114987664Y-110388793D01*
X114987671Y-110388797D01*
X115122517Y-110439091D01*
X115122516Y-110439091D01*
X115129444Y-110439835D01*
X115182127Y-110445500D01*
X116275500Y-110445499D01*
X116342539Y-110465184D01*
X116388294Y-110517987D01*
X116399500Y-110569499D01*
X116399500Y-112775500D01*
X116379815Y-112842539D01*
X116327011Y-112888294D01*
X116275500Y-112899500D01*
X114920943Y-112899500D01*
X114768216Y-112940423D01*
X114768209Y-112940426D01*
X114631290Y-113019475D01*
X114631282Y-113019481D01*
X114519481Y-113131282D01*
X114519475Y-113131290D01*
X114440426Y-113268209D01*
X114440423Y-113268216D01*
X114399500Y-113420943D01*
X114399500Y-115035397D01*
X114379815Y-115102436D01*
X114331800Y-115145879D01*
X114318389Y-115152712D01*
X114152786Y-115273028D01*
X114008032Y-115417782D01*
X114008028Y-115417787D01*
X113924818Y-115532317D01*
X113869488Y-115574983D01*
X113799875Y-115580962D01*
X113738080Y-115548356D01*
X113703723Y-115487518D01*
X113700500Y-115459432D01*
X113700500Y-102724500D01*
X113703050Y-102715814D01*
X113701762Y-102706853D01*
X113712740Y-102682812D01*
X113720185Y-102657461D01*
X113727025Y-102651533D01*
X113730787Y-102643297D01*
X113753021Y-102629007D01*
X113772989Y-102611706D01*
X113783503Y-102609418D01*
X113789565Y-102605523D01*
X113824500Y-102600500D01*
X113913331Y-102600500D01*
X113913347Y-102600501D01*
X113920943Y-102600501D01*
X114079054Y-102600501D01*
X114079057Y-102600501D01*
X114231785Y-102559577D01*
X114313995Y-102512112D01*
X114375995Y-102495500D01*
X114695500Y-102495500D01*
X114762539Y-102515185D01*
X114808294Y-102567989D01*
X114819500Y-102619500D01*
X114819500Y-102795017D01*
X114830000Y-102897796D01*
X114857039Y-102979394D01*
X114885186Y-103064335D01*
X114977288Y-103213656D01*
X115101344Y-103337712D01*
X115250665Y-103429814D01*
X115417202Y-103484999D01*
X115519990Y-103495500D01*
X115519995Y-103495500D01*
X117320005Y-103495500D01*
X117320010Y-103495500D01*
X117422798Y-103484999D01*
X117589335Y-103429814D01*
X117738656Y-103337712D01*
X117862712Y-103213656D01*
X117954814Y-103064335D01*
X118009999Y-102897798D01*
X118020500Y-102795010D01*
X118020500Y-100994990D01*
X118009999Y-100892202D01*
X117954814Y-100725665D01*
X117862712Y-100576344D01*
X117738656Y-100452288D01*
X117589335Y-100360186D01*
X117422798Y-100305001D01*
X117422796Y-100305000D01*
X117320017Y-100294500D01*
X117320010Y-100294500D01*
X115519990Y-100294500D01*
X115519982Y-100294500D01*
X115417203Y-100305000D01*
X115417202Y-100305001D01*
X115345686Y-100328699D01*
X115250667Y-100360185D01*
X115250662Y-100360187D01*
X115101342Y-100452289D01*
X114977289Y-100576342D01*
X114885187Y-100725662D01*
X114885186Y-100725665D01*
X114843209Y-100852345D01*
X114842206Y-100855371D01*
X114802433Y-100912816D01*
X114737918Y-100939639D01*
X114669142Y-100927324D01*
X114617942Y-100879781D01*
X114600500Y-100816367D01*
X114600500Y-91781867D01*
X114620185Y-91714828D01*
X114672989Y-91669073D01*
X114742147Y-91659129D01*
X114805703Y-91688154D01*
X114839061Y-91734415D01*
X114926650Y-91945876D01*
X114926657Y-91945890D01*
X115041392Y-92144617D01*
X115181081Y-92326661D01*
X115181089Y-92326670D01*
X115343330Y-92488911D01*
X115343338Y-92488918D01*
X115343339Y-92488919D01*
X115361196Y-92502621D01*
X115525382Y-92628607D01*
X115525385Y-92628608D01*
X115525388Y-92628611D01*
X115724112Y-92743344D01*
X115724117Y-92743346D01*
X115724123Y-92743349D01*
X115815480Y-92781190D01*
X115936113Y-92831158D01*
X116157762Y-92890548D01*
X116385266Y-92920500D01*
X116385273Y-92920500D01*
X116614727Y-92920500D01*
X116614734Y-92920500D01*
X116842238Y-92890548D01*
X117063887Y-92831158D01*
X117275888Y-92743344D01*
X117474612Y-92628611D01*
X117656661Y-92488919D01*
X117656665Y-92488914D01*
X117656670Y-92488911D01*
X117818911Y-92326670D01*
X117818914Y-92326665D01*
X117818919Y-92326661D01*
X117958611Y-92144612D01*
X118073344Y-91945888D01*
X118161158Y-91733887D01*
X118220548Y-91512238D01*
X118250500Y-91284734D01*
X118250500Y-91055266D01*
X118220548Y-90827762D01*
X118161158Y-90606113D01*
X118073346Y-90394118D01*
X118073346Y-90394117D01*
X118073344Y-90394112D01*
X117958611Y-90195388D01*
X117958608Y-90195385D01*
X117958607Y-90195382D01*
X117818918Y-90013338D01*
X117818911Y-90013330D01*
X117656670Y-89851089D01*
X117656661Y-89851081D01*
X117474617Y-89711392D01*
X117275890Y-89596657D01*
X117275876Y-89596650D01*
X117063887Y-89508842D01*
X116842238Y-89449452D01*
X116804215Y-89444446D01*
X116614741Y-89419500D01*
X116614734Y-89419500D01*
X116385266Y-89419500D01*
X116385258Y-89419500D01*
X116168715Y-89448009D01*
X116157762Y-89449452D01*
X116064076Y-89474554D01*
X115936112Y-89508842D01*
X115724123Y-89596650D01*
X115724109Y-89596657D01*
X115525382Y-89711392D01*
X115343338Y-89851081D01*
X115181081Y-90013338D01*
X115041392Y-90195382D01*
X114926657Y-90394109D01*
X114926653Y-90394118D01*
X114926651Y-90394123D01*
X114858717Y-90558132D01*
X114839061Y-90605585D01*
X114795220Y-90659988D01*
X114728926Y-90682053D01*
X114661227Y-90664774D01*
X114613616Y-90613637D01*
X114600500Y-90558132D01*
X114600500Y-81770096D01*
X114620185Y-81703057D01*
X114636814Y-81682419D01*
X115702139Y-80617094D01*
X115763460Y-80583611D01*
X115833152Y-80588595D01*
X115837271Y-80590216D01*
X115860491Y-80599834D01*
X115936113Y-80631158D01*
X116157762Y-80690548D01*
X116385266Y-80720500D01*
X116385273Y-80720500D01*
X116614727Y-80720500D01*
X116614734Y-80720500D01*
X116842238Y-80690548D01*
X117063887Y-80631158D01*
X117275888Y-80543344D01*
X117474612Y-80428611D01*
X117656661Y-80288919D01*
X117656665Y-80288914D01*
X117656670Y-80288911D01*
X117818911Y-80126670D01*
X117818914Y-80126665D01*
X117818919Y-80126661D01*
X117958611Y-79944612D01*
X118073344Y-79745888D01*
X118161158Y-79533887D01*
X118220548Y-79312238D01*
X118250500Y-79084734D01*
X118250500Y-78855266D01*
X118220548Y-78627762D01*
X118161158Y-78406113D01*
X118073344Y-78194112D01*
X117958611Y-77995388D01*
X117958608Y-77995385D01*
X117958607Y-77995382D01*
X117818918Y-77813338D01*
X117818911Y-77813330D01*
X117656670Y-77651089D01*
X117656661Y-77651081D01*
X117474617Y-77511392D01*
X117275898Y-77396661D01*
X117275893Y-77396659D01*
X117275888Y-77396656D01*
X117177045Y-77355713D01*
X117122643Y-77311872D01*
X117100579Y-77245577D01*
X117100500Y-77241153D01*
X117100500Y-75672135D01*
X120749500Y-75672135D01*
X120749500Y-78267870D01*
X120749501Y-78267876D01*
X120755908Y-78327483D01*
X120806202Y-78462328D01*
X120806206Y-78462335D01*
X120892452Y-78577544D01*
X120892455Y-78577547D01*
X121007664Y-78663793D01*
X121007671Y-78663797D01*
X121142517Y-78714091D01*
X121142516Y-78714091D01*
X121149444Y-78714835D01*
X121202127Y-78720500D01*
X123797872Y-78720499D01*
X123857483Y-78714091D01*
X123992331Y-78663796D01*
X124107546Y-78577546D01*
X124193796Y-78462331D01*
X124244091Y-78327483D01*
X124250500Y-78267873D01*
X124250499Y-75672128D01*
X124244091Y-75612517D01*
X124193796Y-75477669D01*
X124193795Y-75477668D01*
X124193793Y-75477664D01*
X124107547Y-75362455D01*
X124107544Y-75362452D01*
X123992335Y-75276206D01*
X123992328Y-75276202D01*
X123857482Y-75225908D01*
X123857483Y-75225908D01*
X123797883Y-75219501D01*
X123797881Y-75219500D01*
X123797873Y-75219500D01*
X123797864Y-75219500D01*
X121202129Y-75219500D01*
X121202123Y-75219501D01*
X121142516Y-75225908D01*
X121007671Y-75276202D01*
X121007664Y-75276206D01*
X120892455Y-75362452D01*
X120892452Y-75362455D01*
X120806206Y-75477664D01*
X120806202Y-75477671D01*
X120755908Y-75612517D01*
X120749501Y-75672116D01*
X120749501Y-75672123D01*
X120749500Y-75672135D01*
X117100500Y-75672135D01*
X117100500Y-72224500D01*
X117120185Y-72157461D01*
X117172989Y-72111706D01*
X117224500Y-72100500D01*
X137410500Y-72100500D01*
X137477539Y-72120185D01*
X137523294Y-72172989D01*
X137534500Y-72224500D01*
X137534500Y-72725397D01*
X137514815Y-72792436D01*
X137466800Y-72835879D01*
X137453389Y-72842712D01*
X137287786Y-72963028D01*
X137143028Y-73107786D01*
X137022715Y-73273386D01*
X136929781Y-73455776D01*
X136866522Y-73650465D01*
X136834500Y-73852648D01*
X136834500Y-74057351D01*
X136866522Y-74259534D01*
X136929781Y-74454223D01*
X137022715Y-74636613D01*
X137143028Y-74802213D01*
X137287786Y-74946971D01*
X137442749Y-75059556D01*
X137453390Y-75067287D01*
X137569607Y-75126503D01*
X137635776Y-75160218D01*
X137635778Y-75160218D01*
X137635781Y-75160220D01*
X137740137Y-75194127D01*
X137830465Y-75223477D01*
X137931557Y-75239488D01*
X138032648Y-75255500D01*
X138032649Y-75255500D01*
X138237351Y-75255500D01*
X138237352Y-75255500D01*
X138439534Y-75223477D01*
X138634219Y-75160220D01*
X138816610Y-75067287D01*
X138909590Y-74999732D01*
X138982213Y-74946971D01*
X138982215Y-74946968D01*
X138982219Y-74946966D01*
X139126966Y-74802219D01*
X139126968Y-74802215D01*
X139126971Y-74802213D01*
X139247284Y-74636614D01*
X139247285Y-74636613D01*
X139247287Y-74636610D01*
X139294516Y-74543917D01*
X139342489Y-74493123D01*
X139410310Y-74476328D01*
X139476445Y-74498865D01*
X139515485Y-74543919D01*
X139562715Y-74636614D01*
X139683028Y-74802213D01*
X139827786Y-74946971D01*
X139982749Y-75059556D01*
X139993390Y-75067287D01*
X140109607Y-75126503D01*
X140175776Y-75160218D01*
X140175778Y-75160218D01*
X140175781Y-75160220D01*
X140280137Y-75194127D01*
X140370465Y-75223477D01*
X140471557Y-75239488D01*
X140572648Y-75255500D01*
X140572649Y-75255500D01*
X140777351Y-75255500D01*
X140777352Y-75255500D01*
X140979534Y-75223477D01*
X141174219Y-75160220D01*
X141356610Y-75067287D01*
X141449590Y-74999732D01*
X141522213Y-74946971D01*
X141522215Y-74946968D01*
X141522219Y-74946966D01*
X141666966Y-74802219D01*
X141666968Y-74802215D01*
X141666971Y-74802213D01*
X141787284Y-74636614D01*
X141787285Y-74636613D01*
X141787287Y-74636610D01*
X141834516Y-74543917D01*
X141882489Y-74493123D01*
X141950310Y-74476328D01*
X142016445Y-74498865D01*
X142055485Y-74543919D01*
X142102715Y-74636614D01*
X142223028Y-74802213D01*
X142367786Y-74946971D01*
X142522749Y-75059556D01*
X142533390Y-75067287D01*
X142649607Y-75126503D01*
X142715776Y-75160218D01*
X142715778Y-75160218D01*
X142715781Y-75160220D01*
X142820137Y-75194127D01*
X142910465Y-75223477D01*
X143011557Y-75239488D01*
X143112648Y-75255500D01*
X143112649Y-75255500D01*
X143317351Y-75255500D01*
X143317352Y-75255500D01*
X143519534Y-75223477D01*
X143714219Y-75160220D01*
X143896610Y-75067287D01*
X143989590Y-74999732D01*
X144062213Y-74946971D01*
X144062215Y-74946968D01*
X144062219Y-74946966D01*
X144206966Y-74802219D01*
X144206968Y-74802215D01*
X144206971Y-74802213D01*
X144327284Y-74636614D01*
X144327285Y-74636613D01*
X144327287Y-74636610D01*
X144374516Y-74543917D01*
X144422489Y-74493123D01*
X144490310Y-74476328D01*
X144556445Y-74498865D01*
X144595485Y-74543919D01*
X144642715Y-74636614D01*
X144763028Y-74802213D01*
X144907786Y-74946971D01*
X145062749Y-75059556D01*
X145073390Y-75067287D01*
X145189607Y-75126503D01*
X145255776Y-75160218D01*
X145255778Y-75160218D01*
X145255781Y-75160220D01*
X145360137Y-75194127D01*
X145450465Y-75223477D01*
X145551557Y-75239488D01*
X145652648Y-75255500D01*
X145652649Y-75255500D01*
X145857351Y-75255500D01*
X145857352Y-75255500D01*
X146059534Y-75223477D01*
X146254219Y-75160220D01*
X146436610Y-75067287D01*
X146529590Y-74999732D01*
X146602213Y-74946971D01*
X146602215Y-74946968D01*
X146602219Y-74946966D01*
X146746966Y-74802219D01*
X146746968Y-74802215D01*
X146746971Y-74802213D01*
X146799732Y-74729590D01*
X146867287Y-74636610D01*
X146960220Y-74454219D01*
X147023477Y-74259534D01*
X147055500Y-74057352D01*
X147055500Y-73852648D01*
X147023477Y-73650466D01*
X146960220Y-73455781D01*
X146960218Y-73455778D01*
X146960218Y-73455776D01*
X146914515Y-73366080D01*
X146867287Y-73273390D01*
X146859556Y-73262749D01*
X146746971Y-73107786D01*
X146602213Y-72963028D01*
X146436613Y-72842715D01*
X146436612Y-72842714D01*
X146436610Y-72842713D01*
X146379653Y-72813691D01*
X146254223Y-72749781D01*
X146059534Y-72686522D01*
X145884995Y-72658878D01*
X145857352Y-72654500D01*
X145652648Y-72654500D01*
X145628329Y-72658351D01*
X145450465Y-72686522D01*
X145255776Y-72749781D01*
X145073386Y-72842715D01*
X144907786Y-72963028D01*
X144763028Y-73107786D01*
X144642715Y-73273386D01*
X144595485Y-73366080D01*
X144547510Y-73416876D01*
X144479689Y-73433671D01*
X144413554Y-73411134D01*
X144374515Y-73366080D01*
X144373883Y-73364840D01*
X144327287Y-73273390D01*
X144319556Y-73262749D01*
X144206971Y-73107786D01*
X144062213Y-72963028D01*
X143896613Y-72842715D01*
X143896612Y-72842714D01*
X143896610Y-72842713D01*
X143839653Y-72813691D01*
X143714223Y-72749781D01*
X143519534Y-72686522D01*
X143344995Y-72658878D01*
X143317352Y-72654500D01*
X143112648Y-72654500D01*
X143088329Y-72658351D01*
X142910465Y-72686522D01*
X142715776Y-72749781D01*
X142533386Y-72842715D01*
X142367786Y-72963028D01*
X142223028Y-73107786D01*
X142102715Y-73273386D01*
X142055485Y-73366080D01*
X142007510Y-73416876D01*
X141939689Y-73433671D01*
X141873554Y-73411134D01*
X141834515Y-73366080D01*
X141833883Y-73364840D01*
X141787287Y-73273390D01*
X141779556Y-73262749D01*
X141666971Y-73107786D01*
X141522213Y-72963028D01*
X141356613Y-72842715D01*
X141356612Y-72842714D01*
X141356610Y-72842713D01*
X141299653Y-72813691D01*
X141174223Y-72749781D01*
X140979534Y-72686522D01*
X140804995Y-72658878D01*
X140777352Y-72654500D01*
X140572648Y-72654500D01*
X140548329Y-72658351D01*
X140370465Y-72686522D01*
X140175776Y-72749781D01*
X139993386Y-72842715D01*
X139827786Y-72963028D01*
X139683028Y-73107786D01*
X139562715Y-73273386D01*
X139515485Y-73366080D01*
X139467510Y-73416876D01*
X139399689Y-73433671D01*
X139333554Y-73411134D01*
X139294515Y-73366080D01*
X139293883Y-73364840D01*
X139247287Y-73273390D01*
X139239556Y-73262749D01*
X139126971Y-73107786D01*
X138982213Y-72963028D01*
X138816610Y-72842712D01*
X138803200Y-72835879D01*
X138752406Y-72787903D01*
X138735500Y-72725397D01*
X138735500Y-71224059D01*
X138735501Y-71224046D01*
X138735501Y-71055945D01*
X138735501Y-71055943D01*
X138694577Y-70903215D01*
X138665639Y-70853095D01*
X138615520Y-70766284D01*
X138503716Y-70654480D01*
X138503715Y-70654479D01*
X138499385Y-70650149D01*
X138499374Y-70650139D01*
X138487590Y-70638355D01*
X138487588Y-70638352D01*
X138368718Y-70519482D01*
X138368716Y-70519480D01*
X138231785Y-70440423D01*
X138079058Y-70399499D01*
X138079057Y-70399499D01*
X137920943Y-70399499D01*
X137813587Y-70428265D01*
X137768210Y-70440424D01*
X137768209Y-70440425D01*
X137718096Y-70469359D01*
X137718095Y-70469360D01*
X137674689Y-70494420D01*
X137631285Y-70519479D01*
X137631282Y-70519481D01*
X137287584Y-70863181D01*
X137226261Y-70896666D01*
X137199903Y-70899500D01*
X116086669Y-70899500D01*
X116086653Y-70899499D01*
X116079057Y-70899499D01*
X115920943Y-70899499D01*
X115813587Y-70928265D01*
X115768210Y-70940424D01*
X115768209Y-70940425D01*
X115718096Y-70969359D01*
X115718095Y-70969360D01*
X115674689Y-70994420D01*
X115631285Y-71019479D01*
X115631282Y-71019481D01*
X115519482Y-71131281D01*
X115519478Y-71131287D01*
X115471691Y-71214057D01*
X115440424Y-71268212D01*
X115440423Y-71268213D01*
X115419961Y-71344579D01*
X115399499Y-71420943D01*
X115399499Y-71420945D01*
X115399499Y-71579054D01*
X115399498Y-71579054D01*
X115399499Y-71579057D01*
X115440423Y-71731785D01*
X115461457Y-71768216D01*
X115519480Y-71868716D01*
X115631284Y-71980520D01*
X115631285Y-71980521D01*
X115762470Y-72111706D01*
X115863181Y-72212416D01*
X115896666Y-72273739D01*
X115899500Y-72300097D01*
X115899500Y-77241153D01*
X115879815Y-77308192D01*
X115827011Y-77353947D01*
X115822963Y-77355709D01*
X115724112Y-77396656D01*
X115724109Y-77396657D01*
X115724101Y-77396661D01*
X115525382Y-77511392D01*
X115343338Y-77651081D01*
X115181081Y-77813338D01*
X115041392Y-77995382D01*
X114926657Y-78194109D01*
X114926650Y-78194123D01*
X114838842Y-78406112D01*
X114779453Y-78627759D01*
X114779451Y-78627770D01*
X114749500Y-78855258D01*
X114749500Y-79084741D01*
X114774446Y-79274215D01*
X114779452Y-79312238D01*
X114779453Y-79312240D01*
X114838841Y-79533884D01*
X114879783Y-79632726D01*
X114887252Y-79702196D01*
X114855977Y-79764675D01*
X114852903Y-79767860D01*
X113631286Y-80989478D01*
X113519481Y-81101282D01*
X113519480Y-81101284D01*
X113473292Y-81181286D01*
X113469361Y-81188094D01*
X113469359Y-81188096D01*
X113440425Y-81238209D01*
X113440424Y-81238210D01*
X113440423Y-81238215D01*
X113399499Y-81390943D01*
X113399499Y-81390945D01*
X113399499Y-81559046D01*
X113399500Y-81559059D01*
X113399500Y-101275500D01*
X113379815Y-101342539D01*
X113327011Y-101388294D01*
X113275500Y-101399500D01*
X113020943Y-101399500D01*
X112868216Y-101440423D01*
X112868209Y-101440426D01*
X112731290Y-101519475D01*
X112731282Y-101519481D01*
X112619481Y-101631282D01*
X112619475Y-101631290D01*
X112540426Y-101768209D01*
X112540423Y-101768216D01*
X112499500Y-101920943D01*
X112499500Y-124313330D01*
X112499499Y-124313348D01*
X112499499Y-124479054D01*
X112499498Y-124479054D01*
X105500500Y-124479054D01*
X105500500Y-65624500D01*
X105520185Y-65557461D01*
X105572989Y-65511706D01*
X105624500Y-65500500D01*
X159375500Y-65500500D01*
X159442539Y-65520185D01*
G37*
%TD.AperFunction*%
%TD*%
D23*
%TO.C,R1*%
X118825000Y-124000000D03*
X115425000Y-124000000D03*
%TD*%
D24*
%TO.C,U1*%
X138135000Y-81575000D03*
D25*
X140675000Y-81575000D03*
X143215000Y-81575000D03*
X145755000Y-81575000D03*
X145755000Y-73955000D03*
X143215000Y-73955000D03*
X140675000Y-73955000D03*
X138135000Y-73955000D03*
%TD*%
D26*
%TO.C,RV1*%
X144000000Y-102825000D03*
X146540000Y-102825000D03*
X149080000Y-102825000D03*
%TD*%
D25*
%TO.C,R3*%
X115000000Y-116265000D03*
X122620000Y-116265000D03*
%TD*%
%TO.C,R2*%
X123500000Y-124500000D03*
X131120000Y-124500000D03*
%TD*%
D27*
%TO.C,Q1*%
X115755000Y-109195000D03*
D28*
X117025000Y-109195000D03*
X118295000Y-109195000D03*
%TD*%
D29*
%TO.C,K1*%
X122500000Y-76970000D03*
D30*
X116500000Y-78970000D03*
X116500000Y-91170000D03*
X128500000Y-91170000D03*
X128500000Y-78970000D03*
%TD*%
D31*
%TO.C,J3*%
X152500000Y-126755000D03*
D32*
X147420000Y-126755000D03*
%TD*%
D33*
%TO.C,D2*%
X116420000Y-101895000D03*
D34*
X126580000Y-101895000D03*
%TD*%
D25*
%TO.C,C1*%
X135500000Y-124315000D03*
X140500000Y-124315000D03*
%TD*%
D35*
X116958333Y-121554819D02*
X116625000Y-121078628D01*
X116386905Y-121554819D02*
X116386905Y-120554819D01*
X116386905Y-120554819D02*
X116767857Y-120554819D01*
X116767857Y-120554819D02*
X116863095Y-120602438D01*
X116863095Y-120602438D02*
X116910714Y-120650057D01*
X116910714Y-120650057D02*
X116958333Y-120745295D01*
X116958333Y-120745295D02*
X116958333Y-120888152D01*
X116958333Y-120888152D02*
X116910714Y-120983390D01*
X116910714Y-120983390D02*
X116863095Y-121031009D01*
X116863095Y-121031009D02*
X116767857Y-121078628D01*
X116767857Y-121078628D02*
X116386905Y-121078628D01*
X117910714Y-121554819D02*
X117339286Y-121554819D01*
X117625000Y-121554819D02*
X117625000Y-120554819D01*
X117625000Y-120554819D02*
X117529762Y-120697676D01*
X117529762Y-120697676D02*
X117434524Y-120792914D01*
X117434524Y-120792914D02*
X117339286Y-120840533D01*
X133734819Y-78526904D02*
X134544342Y-78526904D01*
X134544342Y-78526904D02*
X134639580Y-78479285D01*
X134639580Y-78479285D02*
X134687200Y-78431666D01*
X134687200Y-78431666D02*
X134734819Y-78336428D01*
X134734819Y-78336428D02*
X134734819Y-78145952D01*
X134734819Y-78145952D02*
X134687200Y-78050714D01*
X134687200Y-78050714D02*
X134639580Y-78003095D01*
X134639580Y-78003095D02*
X134544342Y-77955476D01*
X134544342Y-77955476D02*
X133734819Y-77955476D01*
X134734819Y-76955476D02*
X134734819Y-77526904D01*
X134734819Y-77241190D02*
X133734819Y-77241190D01*
X133734819Y-77241190D02*
X133877676Y-77336428D01*
X133877676Y-77336428D02*
X133972914Y-77431666D01*
X133972914Y-77431666D02*
X134020533Y-77526904D01*
X145944761Y-100119819D02*
X145611428Y-99643628D01*
X145373333Y-100119819D02*
X145373333Y-99119819D01*
X145373333Y-99119819D02*
X145754285Y-99119819D01*
X145754285Y-99119819D02*
X145849523Y-99167438D01*
X145849523Y-99167438D02*
X145897142Y-99215057D01*
X145897142Y-99215057D02*
X145944761Y-99310295D01*
X145944761Y-99310295D02*
X145944761Y-99453152D01*
X145944761Y-99453152D02*
X145897142Y-99548390D01*
X145897142Y-99548390D02*
X145849523Y-99596009D01*
X145849523Y-99596009D02*
X145754285Y-99643628D01*
X145754285Y-99643628D02*
X145373333Y-99643628D01*
X146230476Y-99119819D02*
X146563809Y-100119819D01*
X146563809Y-100119819D02*
X146897142Y-99119819D01*
X147754285Y-100119819D02*
X147182857Y-100119819D01*
X147468571Y-100119819D02*
X147468571Y-99119819D01*
X147468571Y-99119819D02*
X147373333Y-99262676D01*
X147373333Y-99262676D02*
X147278095Y-99357914D01*
X147278095Y-99357914D02*
X147182857Y-99405533D01*
X118643333Y-114349819D02*
X118310000Y-113873628D01*
X118071905Y-114349819D02*
X118071905Y-113349819D01*
X118071905Y-113349819D02*
X118452857Y-113349819D01*
X118452857Y-113349819D02*
X118548095Y-113397438D01*
X118548095Y-113397438D02*
X118595714Y-113445057D01*
X118595714Y-113445057D02*
X118643333Y-113540295D01*
X118643333Y-113540295D02*
X118643333Y-113683152D01*
X118643333Y-113683152D02*
X118595714Y-113778390D01*
X118595714Y-113778390D02*
X118548095Y-113826009D01*
X118548095Y-113826009D02*
X118452857Y-113873628D01*
X118452857Y-113873628D02*
X118071905Y-113873628D01*
X118976667Y-113349819D02*
X119595714Y-113349819D01*
X119595714Y-113349819D02*
X119262381Y-113730771D01*
X119262381Y-113730771D02*
X119405238Y-113730771D01*
X119405238Y-113730771D02*
X119500476Y-113778390D01*
X119500476Y-113778390D02*
X119548095Y-113826009D01*
X119548095Y-113826009D02*
X119595714Y-113921247D01*
X119595714Y-113921247D02*
X119595714Y-114159342D01*
X119595714Y-114159342D02*
X119548095Y-114254580D01*
X119548095Y-114254580D02*
X119500476Y-114302200D01*
X119500476Y-114302200D02*
X119405238Y-114349819D01*
X119405238Y-114349819D02*
X119119524Y-114349819D01*
X119119524Y-114349819D02*
X119024286Y-114302200D01*
X119024286Y-114302200D02*
X118976667Y-114254580D01*
X127143333Y-122584819D02*
X126810000Y-122108628D01*
X126571905Y-122584819D02*
X126571905Y-121584819D01*
X126571905Y-121584819D02*
X126952857Y-121584819D01*
X126952857Y-121584819D02*
X127048095Y-121632438D01*
X127048095Y-121632438D02*
X127095714Y-121680057D01*
X127095714Y-121680057D02*
X127143333Y-121775295D01*
X127143333Y-121775295D02*
X127143333Y-121918152D01*
X127143333Y-121918152D02*
X127095714Y-122013390D01*
X127095714Y-122013390D02*
X127048095Y-122061009D01*
X127048095Y-122061009D02*
X126952857Y-122108628D01*
X126952857Y-122108628D02*
X126571905Y-122108628D01*
X127524286Y-121680057D02*
X127571905Y-121632438D01*
X127571905Y-121632438D02*
X127667143Y-121584819D01*
X127667143Y-121584819D02*
X127905238Y-121584819D01*
X127905238Y-121584819D02*
X128000476Y-121632438D01*
X128000476Y-121632438D02*
X128048095Y-121680057D01*
X128048095Y-121680057D02*
X128095714Y-121775295D01*
X128095714Y-121775295D02*
X128095714Y-121870533D01*
X128095714Y-121870533D02*
X128048095Y-122013390D01*
X128048095Y-122013390D02*
X127476667Y-122584819D01*
X127476667Y-122584819D02*
X128095714Y-122584819D01*
X116929761Y-106185057D02*
X116834523Y-106137438D01*
X116834523Y-106137438D02*
X116739285Y-106042200D01*
X116739285Y-106042200D02*
X116596428Y-105899342D01*
X116596428Y-105899342D02*
X116501190Y-105851723D01*
X116501190Y-105851723D02*
X116405952Y-105851723D01*
X116453571Y-106089819D02*
X116358333Y-106042200D01*
X116358333Y-106042200D02*
X116263095Y-105946961D01*
X116263095Y-105946961D02*
X116215476Y-105756485D01*
X116215476Y-105756485D02*
X116215476Y-105423152D01*
X116215476Y-105423152D02*
X116263095Y-105232676D01*
X116263095Y-105232676D02*
X116358333Y-105137438D01*
X116358333Y-105137438D02*
X116453571Y-105089819D01*
X116453571Y-105089819D02*
X116644047Y-105089819D01*
X116644047Y-105089819D02*
X116739285Y-105137438D01*
X116739285Y-105137438D02*
X116834523Y-105232676D01*
X116834523Y-105232676D02*
X116882142Y-105423152D01*
X116882142Y-105423152D02*
X116882142Y-105756485D01*
X116882142Y-105756485D02*
X116834523Y-105946961D01*
X116834523Y-105946961D02*
X116739285Y-106042200D01*
X116739285Y-106042200D02*
X116644047Y-106089819D01*
X116644047Y-106089819D02*
X116453571Y-106089819D01*
X117834523Y-106089819D02*
X117263095Y-106089819D01*
X117548809Y-106089819D02*
X117548809Y-105089819D01*
X117548809Y-105089819D02*
X117453571Y-105232676D01*
X117453571Y-105232676D02*
X117358333Y-105327914D01*
X117358333Y-105327914D02*
X117263095Y-105375533D01*
X121761905Y-73624819D02*
X121761905Y-72624819D01*
X122333333Y-73624819D02*
X121904762Y-73053390D01*
X122333333Y-72624819D02*
X121761905Y-73196247D01*
X123285714Y-73624819D02*
X122714286Y-73624819D01*
X123000000Y-73624819D02*
X123000000Y-72624819D01*
X123000000Y-72624819D02*
X122904762Y-72767676D01*
X122904762Y-72767676D02*
X122809524Y-72862914D01*
X122809524Y-72862914D02*
X122714286Y-72910533D01*
X149626666Y-119889819D02*
X149626666Y-120604104D01*
X149626666Y-120604104D02*
X149579047Y-120746961D01*
X149579047Y-120746961D02*
X149483809Y-120842200D01*
X149483809Y-120842200D02*
X149340952Y-120889819D01*
X149340952Y-120889819D02*
X149245714Y-120889819D01*
X150007619Y-119889819D02*
X150626666Y-119889819D01*
X150626666Y-119889819D02*
X150293333Y-120270771D01*
X150293333Y-120270771D02*
X150436190Y-120270771D01*
X150436190Y-120270771D02*
X150531428Y-120318390D01*
X150531428Y-120318390D02*
X150579047Y-120366009D01*
X150579047Y-120366009D02*
X150626666Y-120461247D01*
X150626666Y-120461247D02*
X150626666Y-120699342D01*
X150626666Y-120699342D02*
X150579047Y-120794580D01*
X150579047Y-120794580D02*
X150531428Y-120842200D01*
X150531428Y-120842200D02*
X150436190Y-120889819D01*
X150436190Y-120889819D02*
X150150476Y-120889819D01*
X150150476Y-120889819D02*
X150055238Y-120842200D01*
X150055238Y-120842200D02*
X150007619Y-120794580D01*
X120761905Y-99879819D02*
X120761905Y-98879819D01*
X120761905Y-98879819D02*
X121000000Y-98879819D01*
X121000000Y-98879819D02*
X121142857Y-98927438D01*
X121142857Y-98927438D02*
X121238095Y-99022676D01*
X121238095Y-99022676D02*
X121285714Y-99117914D01*
X121285714Y-99117914D02*
X121333333Y-99308390D01*
X121333333Y-99308390D02*
X121333333Y-99451247D01*
X121333333Y-99451247D02*
X121285714Y-99641723D01*
X121285714Y-99641723D02*
X121238095Y-99736961D01*
X121238095Y-99736961D02*
X121142857Y-99832200D01*
X121142857Y-99832200D02*
X121000000Y-99879819D01*
X121000000Y-99879819D02*
X120761905Y-99879819D01*
X121714286Y-98975057D02*
X121761905Y-98927438D01*
X121761905Y-98927438D02*
X121857143Y-98879819D01*
X121857143Y-98879819D02*
X122095238Y-98879819D01*
X122095238Y-98879819D02*
X122190476Y-98927438D01*
X122190476Y-98927438D02*
X122238095Y-98975057D01*
X122238095Y-98975057D02*
X122285714Y-99070295D01*
X122285714Y-99070295D02*
X122285714Y-99165533D01*
X122285714Y-99165533D02*
X122238095Y-99308390D01*
X122238095Y-99308390D02*
X121666667Y-99879819D01*
X121666667Y-99879819D02*
X122285714Y-99879819D01*
X116158095Y-100249819D02*
X116158095Y-99249819D01*
X116729523Y-100249819D02*
X116300952Y-99678390D01*
X116729523Y-99249819D02*
X116158095Y-99821247D01*
X138333333Y-121859580D02*
X138285714Y-121907200D01*
X138285714Y-121907200D02*
X138142857Y-121954819D01*
X138142857Y-121954819D02*
X138047619Y-121954819D01*
X138047619Y-121954819D02*
X137904762Y-121907200D01*
X137904762Y-121907200D02*
X137809524Y-121811961D01*
X137809524Y-121811961D02*
X137761905Y-121716723D01*
X137761905Y-121716723D02*
X137714286Y-121526247D01*
X137714286Y-121526247D02*
X137714286Y-121383390D01*
X137714286Y-121383390D02*
X137761905Y-121192914D01*
X137761905Y-121192914D02*
X137809524Y-121097676D01*
X137809524Y-121097676D02*
X137904762Y-121002438D01*
X137904762Y-121002438D02*
X138047619Y-120954819D01*
X138047619Y-120954819D02*
X138142857Y-120954819D01*
X138142857Y-120954819D02*
X138285714Y-121002438D01*
X138285714Y-121002438D02*
X138333333Y-121050057D01*
X139285714Y-121954819D02*
X138714286Y-121954819D01*
X139000000Y-121954819D02*
X139000000Y-120954819D01*
X139000000Y-120954819D02*
X138904762Y-121097676D01*
X138904762Y-121097676D02*
X138809524Y-121192914D01*
X138809524Y-121192914D02*
X138714286Y-121240533D01*
%TO.C,R1*%
D36*
X118625000Y-121850000D02*
G75*
G02*
X118669513Y-126118249I-1500000J-2150000D01*
G01*
X115575000Y-126150000D02*
G75*
G02*
X115596766Y-121834475I1550000J2150000D01*
G01*
X115575000Y-126150000D02*
X118625000Y-126150000D01*
X115575000Y-121850000D02*
X118625000Y-121850000D01*
%TO.C,U1*%
X135280000Y-80415000D02*
X148610000Y-80415000D01*
X148610000Y-80415000D02*
X148610000Y-75115000D01*
X135280000Y-78765000D02*
X135280000Y-80415000D01*
X135280000Y-75115000D02*
X135280000Y-76765000D01*
X148610000Y-75115000D02*
X135280000Y-75115000D01*
X135280000Y-76765000D02*
G75*
G02*
X135280000Y-78765000I0J-1000000D01*
G01*
%TO.C,RV1*%
X151415000Y-107125000D02*
X141665000Y-107125000D01*
X151415000Y-100805000D02*
X151415000Y-107125000D01*
X141665000Y-107125000D02*
X141665000Y-100805000D01*
X141665000Y-100805000D02*
X151415000Y-100805000D01*
%TO.C,R3*%
X115540000Y-114895000D02*
X122080000Y-114895000D01*
X115540000Y-115225000D02*
X115540000Y-114895000D01*
X115540000Y-117305000D02*
X115540000Y-117635000D01*
X115540000Y-117635000D02*
X122080000Y-117635000D01*
X122080000Y-114895000D02*
X122080000Y-115225000D01*
X122080000Y-117635000D02*
X122080000Y-117305000D01*
%TO.C,R2*%
X124040000Y-123130000D02*
X130580000Y-123130000D01*
X124040000Y-123460000D02*
X124040000Y-123130000D01*
X124040000Y-125540000D02*
X124040000Y-125870000D01*
X124040000Y-125870000D02*
X130580000Y-125870000D01*
X130580000Y-123130000D02*
X130580000Y-123460000D01*
X130580000Y-125870000D02*
X130580000Y-125540000D01*
%TO.C,Q1*%
X115225000Y-111045000D02*
X118825000Y-111045000D01*
X115186522Y-111033478D02*
G75*
G02*
X117025000Y-106594999I1838478J1838478D01*
G01*
X117025000Y-106595000D02*
G75*
G02*
X118863478Y-111033478I0J-2600000D01*
G01*
%TO.C,K1*%
X114150000Y-74320000D02*
X114150000Y-97020000D01*
X114150000Y-97020000D02*
X130850000Y-97020000D01*
X118000000Y-79170000D02*
X121150000Y-79170000D01*
X121500000Y-74060000D02*
X123500000Y-74060000D01*
X122150000Y-78570000D02*
X122150000Y-79770000D01*
X122150000Y-79370000D02*
X122850000Y-78970000D01*
X122150000Y-79770000D02*
X122850000Y-79770000D01*
X122850000Y-78570000D02*
X122150000Y-78570000D01*
X122850000Y-79770000D02*
X122850000Y-78570000D01*
X123850000Y-79170000D02*
X127000000Y-79170000D01*
X130850000Y-74320000D02*
X114150000Y-74320000D01*
X130850000Y-97020000D02*
X130850000Y-74320000D01*
%TO.C,J3*%
X147420000Y-131475000D02*
X147860000Y-132085000D01*
X146980000Y-132085000D01*
X147420000Y-131475000D01*
G36*
X147860000Y-132085000D02*
G01*
X146980000Y-132085000D01*
X147420000Y-131475000D01*
X147860000Y-132085000D01*
G37*
X155160000Y-131475000D02*
X147720000Y-131475000D01*
X155160000Y-121435000D02*
X155160000Y-131475000D01*
X147120000Y-131475000D02*
X144760000Y-131475000D01*
X144760000Y-131475000D02*
X144760000Y-121435000D01*
X144760000Y-130855000D02*
X155160000Y-130855000D01*
X144760000Y-129355000D02*
X155160000Y-129355000D01*
X144760000Y-124455000D02*
X155160000Y-124455000D01*
X144760000Y-121435000D02*
X155160000Y-121435000D01*
%TO.C,D2*%
X117760000Y-101895000D02*
X118780000Y-101895000D01*
X119560000Y-100425000D02*
X119560000Y-103365000D01*
X119680000Y-100425000D02*
X119680000Y-103365000D01*
X119800000Y-100425000D02*
X119800000Y-103365000D01*
X125240000Y-101895000D02*
X124220000Y-101895000D01*
X118780000Y-100425000D02*
X124220000Y-100425000D01*
X124220000Y-103365000D01*
X118780000Y-103365000D01*
X118780000Y-100425000D01*
%TO.C,C1*%
X135380000Y-122945000D02*
X140620000Y-122945000D01*
X135380000Y-123282000D02*
X135380000Y-122945000D01*
X135380000Y-125685000D02*
X135380000Y-125348000D01*
X140620000Y-122945000D02*
X140620000Y-123282000D01*
X140620000Y-125348000D02*
X140620000Y-125685000D01*
X140620000Y-125685000D02*
X135380000Y-125685000D01*
%TD*%
D37*
X105000000Y-140000000D02*
X160000000Y-140000000D01*
X105000000Y-140000000D02*
X105000000Y-65000000D01*
X160000000Y-65000000D02*
X160000000Y-140000000D01*
X105000000Y-65000000D02*
X160000000Y-65000000D01*
M02*
